<?xml version="1.0" encoding="UTF-8" standalone="no"?>
<!-- Created with Keyshape -->
<svg xmlns="http://www.w3.org/2000/svg" id="swinging" data-name="Layer 1" viewBox="0 0 855.33185 676.00569">
    <style>
@keyframes swing_t { 0% { transform: translate(586px,362px) rotate(0deg) translate(-45.6683px,-3.99432px); animation-timing-function: cubic-bezier(0.445,0.05,0.55,0.95); } 30.7692% { transform: translate(586px,362px) rotate(13.368309deg) translate(-45.6683px,-3.99432px); animation-timing-function: cubic-bezier(0.445,0.05,0.55,0.95); } 38.4615% { transform: translate(586px,362px) rotate(13.368309deg) translate(-45.6683px,-3.99432px); animation-timing-function: cubic-bezier(0.445,0.05,0.55,0.95); } 46.1538% { transform: translate(586px,362px) rotate(13.368309deg) translate(-45.6683px,-3.99432px); animation-timing-function: cubic-bezier(0.445,0.05,0.55,0.95); } 76.923% { transform: translate(586px,362px) rotate(-17.459669deg) translate(-45.6683px,-3.99432px); animation-timing-function: cubic-bezier(0.445,0.05,0.55,0.95); } 84.6153% { transform: translate(586px,362px) rotate(-17.459669deg) translate(-45.6683px,-3.99432px); animation-timing-function: cubic-bezier(0.445,0.05,0.55,0.95); } 92.3076% { transform: translate(586px,362px) rotate(-17.459669deg) translate(-45.6683px,-3.99432px); } 100% { transform: translate(586px,362px) rotate(0deg) translate(-45.6683px,-3.99432px); } }
@keyframes a0_t { 0% { transform: translate(69.6467px,108.028px); animation-timing-function: cubic-bezier(1,0,0,1); } 76.923% { transform: translate(63.7876px,124.48px); animation-timing-function: cubic-bezier(1,0,0,1); } 84.6153% { transform: translate(63.7876px,124.48px); animation-timing-function: cubic-bezier(1,0,0,1); } 92.3076% { transform: translate(63.7876px,124.48px); animation-timing-function: cubic-bezier(1,0,0,1); } 100% { transform: translate(69.6467px,108.028px); } }
@keyframes a1_t { 0% { transform: rotate(6.872691deg); animation-timing-function: cubic-bezier(1,0,0,1); } 30.7692% { transform: rotate(21.531948deg); animation-timing-function: cubic-bezier(1,0,0,1); } 38.4615% { transform: rotate(21.531948deg); animation-timing-function: cubic-bezier(1,0,0,1); } 46.1538% { transform: rotate(21.531948deg); animation-timing-function: cubic-bezier(1,0,0,1); } 76.923% { transform: rotate(-35.068456deg); animation-timing-function: cubic-bezier(1,0,0,1); } 84.6153% { transform: rotate(-35.068455deg); animation-timing-function: cubic-bezier(1,0,0,1); } 92.3076% { transform: rotate(-35.068455deg); animation-timing-function: cubic-bezier(1,0,0,1); } 100% { transform: rotate(-14.813465deg); } }
@keyframes leg_left_t { 0% { transform: translate(0px,0px); animation-timing-function: cubic-bezier(1,0,0,1); } 76.923% { transform: translate(1.504954px,-17.398997px); animation-timing-function: cubic-bezier(1,0,0,1); } 84.6153% { transform: translate(1.504954px,-17.398997px); animation-timing-function: cubic-bezier(1,0,0,1); } 92.3076% { transform: translate(1.504954px,-17.398997px); animation-timing-function: cubic-bezier(1,0,0,1); } 100% { transform: translate(0px,0px); } }
@keyframes a2_t { 0% { transform: translate(74.8277px,110.161px); animation-timing-function: cubic-bezier(0.445,0.05,0.55,0.95); } 76.923% { transform: translate(71.3652px,123.718px); animation-timing-function: cubic-bezier(0.445,0.05,0.55,0.95); } 84.6153% { transform: translate(71.3652px,123.718px); animation-timing-function: cubic-bezier(0.445,0.05,0.55,0.95); } 92.3076% { transform: translate(71.3652px,123.718px); animation-timing-function: cubic-bezier(0.445,0.05,0.55,0.95); } 100% { transform: translate(74.8277px,110.161px); } }
@keyframes a3_t { 0% { transform: rotate(10.032954deg); animation-timing-function: cubic-bezier(0.445,0.05,0.55,0.95); } 30.7692% { transform: rotate(31.623703deg); animation-timing-function: cubic-bezier(0.445,0.05,0.55,0.95); } 38.4615% { transform: rotate(31.623703deg); animation-timing-function: cubic-bezier(0.445,0.05,0.55,0.95); } 46.1538% { transform: rotate(31.623703deg); animation-timing-function: cubic-bezier(0.445,0.05,0.55,0.95); } 76.923% { transform: rotate(-32.870583deg); animation-timing-function: cubic-bezier(0.445,0.05,0.55,0.95); } 84.6153% { transform: rotate(-32.870583deg); animation-timing-function: cubic-bezier(0.445,0.05,0.55,0.95); } 92.3076% { transform: rotate(-32.870583deg); animation-timing-function: cubic-bezier(0.445,0.05,0.55,0.95); } 100% { transform: rotate(0deg); } }
@keyframes leg_right_t { 0% { transform: translate(0px,0px); animation-timing-function: cubic-bezier(0.445,0.05,0.55,0.95); } 76.923% { transform: translate(-1.768835px,-13.879436px); animation-timing-function: cubic-bezier(0.445,0.05,0.55,0.95); } 84.6153% { transform: translate(-1.768835px,-13.879436px); animation-timing-function: cubic-bezier(0.445,0.05,0.55,0.95); } 92.3076% { transform: translate(-1.768835px,-13.879436px); animation-timing-function: cubic-bezier(0.445,0.05,0.55,0.95); } 100% { transform: translate(0px,0px); } }
@keyframes skirt_d { 0% { d: path('M768.085,651.956L774.06,669.026C774.06,669.026,783.448,671.587,790.276,673.72C797.104,675.854,809.906,672.867,811.186,677.988C812.467,683.109,808.626,692.07,804.785,694.204C800.944,696.338,798.811,698.472,786.435,695.058C774.06,691.644,744.614,690.79,744.614,690.79C743.904,691.217,743.169,691.601,742.414,691.942C741.658,692.283,740.884,692.58,740.094,692.832C739.305,693.083,738.501,693.288,737.688,693.446C736.874,693.604,736.052,693.715,735.226,693.777C729.678,694.204,728.398,694.631,726.691,693.351C724.984,692.07,727.544,692.07,728.398,688.656C729.251,685.243,729.678,686.523,733.519,682.682C737.36,678.841,740.347,667.319,742.481,663.479C744.614,659.638,745.895,651.956,745.895,651.956Z'); animation-timing-function: cubic-bezier(0.19,1,0.22,1); } 30.7692% { d: path('M768.085,651.956L774.06,669.026C774.06,669.026,783.448,671.587,790.276,673.72C797.104,675.854,809.906,672.867,811.186,677.988C812.467,683.109,808.626,692.07,804.785,694.204C800.944,696.338,798.811,698.472,786.435,695.058C774.06,691.644,747.157,701.492,747.157,701.492C746.447,701.919,744.325,696.466,743.57,696.807C742.814,697.148,742.271,698.417,741.481,698.669C740.692,698.92,739.888,699.125,739.075,699.283C738.261,699.441,737.208,698.58,736.382,698.642C730.834,699.069,730.479,703.387,728.772,702.107C727.065,700.827,727.544,692.07,728.398,688.656C729.251,685.243,729.678,686.523,733.519,682.682C737.36,678.841,740.347,667.319,742.481,663.479C744.614,659.638,745.895,651.956,745.895,651.956Z'); animation-timing-function: cubic-bezier(0.19,1,0.22,1); } 38.4615% { d: path('M768.085,651.956L774.06,669.026C774.06,669.026,783.448,671.587,790.276,673.72C797.104,675.854,809.906,672.867,811.186,677.988C812.467,683.109,808.626,692.07,804.785,694.204C800.944,696.338,798.811,698.472,786.435,695.058C774.06,691.644,747.157,701.492,747.157,701.492C746.447,701.919,744.325,696.466,743.57,696.807C742.814,697.148,742.271,698.417,741.481,698.669C740.692,698.92,739.888,699.125,739.075,699.283C738.261,699.441,737.208,698.58,736.382,698.642C730.834,699.069,730.479,703.387,728.772,702.107C727.065,700.827,727.544,692.07,728.398,688.656C729.251,685.243,729.678,686.523,733.519,682.682C737.36,678.841,740.347,667.319,742.481,663.479C744.614,659.638,745.895,651.956,745.895,651.956Z'); animation-timing-function: cubic-bezier(0.19,1,0.22,1); } 46.1538% { d: path('M768.085,651.956L774.06,669.026C774.06,669.026,783.448,671.587,790.276,673.72C797.104,675.854,809.906,672.867,811.186,677.988C812.467,683.109,808.626,692.07,804.785,694.204C800.944,696.338,798.811,698.472,786.435,695.058C774.06,691.644,747.157,701.492,747.157,701.492C746.447,701.919,744.325,696.466,743.57,696.807C742.814,697.148,742.271,698.417,741.481,698.669C740.692,698.92,739.888,699.125,739.075,699.283C738.261,699.441,737.208,698.58,736.382,698.642C730.834,699.069,730.479,703.387,728.772,702.107C727.065,700.827,727.544,692.07,728.398,688.656C729.251,685.243,729.678,686.523,733.519,682.682C737.36,678.841,740.347,667.319,742.481,663.479C744.614,659.638,745.895,651.956,745.895,651.956Z'); animation-timing-function: cubic-bezier(0.19,1,0.22,1); } 76.9231% { d: path('M768.085,651.956L774.06,669.026C774.06,669.026,785.548,664.91,792.376,667.043C799.204,669.177,813.301,664.604,814.581,669.725C815.862,674.846,808.626,692.07,804.785,694.204C800.944,696.338,798.811,698.472,786.435,695.058C774.06,691.644,744.614,690.79,744.614,690.79C743.904,691.217,743.169,691.601,742.414,691.942C741.658,692.283,740.884,692.58,740.094,692.832C739.305,693.083,738.501,693.288,737.688,693.446C736.874,693.604,736.052,693.715,735.226,693.777C729.678,694.204,728.398,694.631,726.691,693.351C724.984,692.07,727.544,692.07,728.398,688.656C729.251,685.243,729.678,686.523,733.519,682.682C737.36,678.841,740.347,667.319,742.481,663.479C744.614,659.638,745.895,651.956,745.895,651.956Z'); animation-timing-function: cubic-bezier(0.19,1,0.22,1); } 84.6154% { d: path('M768.085,651.956L774.06,669.026C774.06,669.026,785.548,664.91,792.376,667.043C799.204,669.177,813.301,664.604,814.581,669.725C815.862,674.846,808.626,692.07,804.785,694.204C800.944,696.338,798.811,698.472,786.435,695.058C774.06,691.644,744.614,690.79,744.614,690.79C743.904,691.217,743.169,691.601,742.414,691.942C741.658,692.283,740.884,692.58,740.094,692.832C739.305,693.083,738.501,693.288,737.688,693.446C736.874,693.604,736.052,693.715,735.226,693.777C729.678,694.204,728.398,694.631,726.691,693.351C724.984,692.07,727.544,692.07,728.398,688.656C729.251,685.243,729.678,686.523,733.519,682.682C737.36,678.841,740.347,667.319,742.481,663.479C744.614,659.638,745.895,651.956,745.895,651.956Z'); animation-timing-function: cubic-bezier(0.19,1,0.22,1); } 92.3077% { d: path('M768.085,651.956L774.06,669.026C774.06,669.026,785.548,664.91,792.376,667.043C799.204,669.177,813.301,664.604,814.581,669.725C815.862,674.846,808.626,692.07,804.785,694.204C800.944,696.338,798.811,698.472,786.435,695.058C774.06,691.644,744.614,690.79,744.614,690.79C743.904,691.217,743.169,691.601,742.414,691.942C741.658,692.283,740.884,692.58,740.094,692.832C739.305,693.083,738.501,693.288,737.688,693.446C736.874,693.604,736.052,693.715,735.226,693.777C729.678,694.204,728.398,694.631,726.691,693.351C724.984,692.07,727.544,692.07,728.398,688.656C729.251,685.243,729.678,686.523,733.519,682.682C737.36,678.841,740.347,667.319,742.481,663.479C744.614,659.638,745.895,651.956,745.895,651.956Z'); animation-timing-function: cubic-bezier(0.19,1,0.22,1); } 100% { d: path('M768.085,651.956L774.06,669.026C774.06,669.026,783.448,671.587,790.276,673.72C797.104,675.854,809.906,672.867,811.186,677.988C812.467,683.109,808.626,692.07,804.785,694.204C800.944,696.338,798.811,698.472,786.435,695.058C774.06,691.644,744.614,690.79,744.614,690.79C743.904,691.217,743.169,691.601,742.414,691.942C741.658,692.283,740.884,692.58,740.094,692.832C739.305,693.083,738.501,693.288,737.688,693.446C736.874,693.604,736.052,693.715,735.226,693.777C729.678,694.204,728.398,694.631,726.691,693.351C724.984,692.07,727.544,692.07,728.398,688.656C729.251,685.243,729.678,686.523,733.519,682.682C737.36,678.841,740.347,667.319,742.481,663.479C744.614,659.638,745.895,651.956,745.895,651.956Z'); } }
@keyframes a4_t { 0% { transform: translate(179.639px,64.6939px) rotate(0deg) translateY(-54.5959px); animation-timing-function: cubic-bezier(0.215,0.61,0.355,1); } 15.3846% { transform: translate(179.639px,64.6939px) rotate(-11.966634deg) translateY(-54.5959px); animation-timing-function: cubic-bezier(0.215,0.61,0.355,1); } 30.7692% { transform: translate(179.639px,64.6939px) rotate(-7.42466deg) translateY(-54.5959px); animation-timing-function: cubic-bezier(0.215,0.61,0.355,1); } 46.1538% { transform: translate(179.639px,64.6939px) rotate(2.890772deg) translateY(-54.5959px); animation-timing-function: cubic-bezier(0.215,0.61,0.355,1); } 61.5384% { transform: translate(179.639px,64.6939px) rotate(-11.966634deg) translateY(-54.5959px); animation-timing-function: cubic-bezier(0.215,0.61,0.355,1); } 76.923% { transform: translate(179.639px,64.6939px) rotate(-7.42466deg) translateY(-54.5959px); animation-timing-function: cubic-bezier(0.215,0.61,0.355,1); } 84.6153% { transform: translate(179.639px,64.6939px) rotate(-11.966634deg) translateY(-54.5959px); animation-timing-function: cubic-bezier(0.215,0.61,0.355,1); } 100% { transform: translate(179.639px,64.6939px) rotate(0deg) translateY(-54.5959px); } }
@keyframes a5_t { 0% { transform: translate(181.78px,65.1171px) rotate(0deg) translate(-12.7541px,-65.1171px); animation-timing-function: cubic-bezier(0.825,0,0.23,1); } 15.3846% { transform: translate(181.78px,65.1171px) rotate(-11.966634deg) translate(-12.7541px,-65.1171px); animation-timing-function: cubic-bezier(0.825,0,0.23,1); } 23.0769% { transform: translate(181.78px,65.1171px) rotate(-7.42466deg) translate(-12.7541px,-65.1171px); animation-timing-function: cubic-bezier(0.825,0,0.23,1); } 38.4615% { transform: translate(181.78px,65.1171px) rotate(-11.966634deg) translate(-12.7541px,-65.1171px); animation-timing-function: cubic-bezier(0.825,0,0.23,1); } 53.8461% { transform: translate(181.78px,65.1171px) rotate(2.890772deg) translate(-12.7541px,-65.1171px); animation-timing-function: cubic-bezier(0.825,0,0.23,1); } 69.2307% { transform: translate(181.78px,65.1171px) rotate(-7.42466deg) translate(-12.7541px,-65.1171px); animation-timing-function: cubic-bezier(0.825,0,0.23,1); } 84.6153% { transform: translate(181.78px,65.1171px) rotate(-11.966634deg) translate(-12.7541px,-65.1171px); animation-timing-function: cubic-bezier(0.825,0,0.23,1); } 100% { transform: translate(181.78px,65.1171px) rotate(0deg) translate(-12.7541px,-65.1171px); } }
@keyframes a6_t { 0% { transform: translate(51.3211px,64.2797px) rotate(0deg) translate(-27.4153px,-62.9164px); animation-timing-function: cubic-bezier(0.825,0,0.23,1); } 15.3846% { transform: translate(51.3211px,64.2797px) rotate(-11.966634deg) translate(-27.4153px,-62.9164px); animation-timing-function: cubic-bezier(0.825,0,0.23,1); } 23.0769% { transform: translate(51.3211px,64.2797px) rotate(-7.42466deg) translate(-27.4153px,-62.9164px); animation-timing-function: cubic-bezier(0.825,0,0.23,1); } 38.4615% { transform: translate(51.3211px,64.2797px) rotate(-11.966634deg) translate(-27.4153px,-62.9164px); animation-timing-function: cubic-bezier(0.825,0,0.23,1); } 53.8461% { transform: translate(51.3211px,64.2797px) rotate(2.890772deg) translate(-27.4153px,-62.9164px); animation-timing-function: cubic-bezier(0.825,0,0.23,1); } 69.2307% { transform: translate(51.3211px,64.2797px) rotate(-7.42466deg) translate(-27.4153px,-62.9164px); animation-timing-function: cubic-bezier(0.825,0,0.23,1); } 84.6153% { transform: translate(51.3211px,64.2797px) rotate(-11.966634deg) translate(-27.4153px,-62.9164px); animation-timing-function: cubic-bezier(0.825,0,0.23,1); } 100% { transform: translate(51.3211px,64.2797px) rotate(0deg) translate(-27.4153px,-62.9164px); } }
@keyframes a7_t { 0% { transform: translate(46.7033px,64.2655px) rotate(0deg) translate(-46.7033px,-45.4638px); animation-timing-function: cubic-bezier(0.77,0,0.175,1); } 15.3846% { transform: translate(46.7033px,64.2655px) rotate(-11.966634deg) translate(-46.7033px,-45.4638px); animation-timing-function: cubic-bezier(0.77,0,0.175,1); } 30.7692% { transform: translate(46.7033px,64.2655px) rotate(-7.42466deg) translate(-46.7033px,-45.4638px); animation-timing-function: cubic-bezier(0.77,0,0.175,1); } 46.1538% { transform: translate(46.7033px,64.2655px) rotate(2.890772deg) translate(-46.7033px,-45.4638px); animation-timing-function: cubic-bezier(0.77,0,0.175,1); } 61.5384% { transform: translate(46.7033px,64.2655px) rotate(-11.966634deg) translate(-46.7033px,-45.4638px); animation-timing-function: cubic-bezier(0.77,0,0.175,1); } 76.923% { transform: translate(46.7033px,64.2655px) rotate(-7.42466deg) translate(-46.7033px,-45.4638px); animation-timing-function: cubic-bezier(0.77,0,0.175,1); } 84.6153% { transform: translate(46.7033px,64.2655px) rotate(-11.966634deg) translate(-46.7033px,-45.4638px); animation-timing-function: cubic-bezier(0.77,0,0.175,1); } 100% { transform: translate(46.7033px,64.2655px) rotate(0deg) translate(-46.7033px,-45.4638px); } }
@keyframes a8_t { 0% { transform: translate(475.639px,64.6939px) rotate(0deg) translateY(-54.5959px); animation-timing-function: cubic-bezier(0.825,0,0.23,1); } 15.3846% { transform: translate(475.639px,64.6939px) rotate(-11.966634deg) translateY(-54.5959px); animation-timing-function: cubic-bezier(0.825,0,0.23,1); } 23.0769% { transform: translate(475.639px,64.6939px) rotate(-7.42466deg) translateY(-54.5959px); animation-timing-function: cubic-bezier(0.825,0,0.23,1); } 38.4615% { transform: translate(475.639px,64.6939px) rotate(-11.966634deg) translateY(-54.5959px); animation-timing-function: cubic-bezier(0.825,0,0.23,1); } 53.8461% { transform: translate(475.639px,64.6939px) rotate(2.890772deg) translateY(-54.5959px); animation-timing-function: cubic-bezier(0.825,0,0.23,1); } 69.2307% { transform: translate(475.639px,64.6939px) rotate(-7.42466deg) translateY(-54.5959px); animation-timing-function: cubic-bezier(0.825,0,0.23,1); } 84.6153% { transform: translate(475.639px,64.6939px) rotate(-11.966634deg) translateY(-54.5959px); animation-timing-function: cubic-bezier(0.825,0,0.23,1); } 100% { transform: translate(475.639px,64.6939px) rotate(0deg) translateY(-54.5959px); } }
@keyframes a9_t { 0% { transform: translate(477.78px,65.1171px) rotate(0deg) translate(-12.7541px,-65.1171px); animation-timing-function: cubic-bezier(0.77,0,0.175,1); } 15.3846% { transform: translate(477.78px,65.1171px) rotate(-11.966634deg) translate(-12.7541px,-65.1171px); animation-timing-function: cubic-bezier(0.77,0,0.175,1); } 30.7692% { transform: translate(477.78px,65.1171px) rotate(-7.42466deg) translate(-12.7541px,-65.1171px); animation-timing-function: cubic-bezier(0.77,0,0.175,1); } 46.1538% { transform: translate(477.78px,65.1171px) rotate(2.890772deg) translate(-12.7541px,-65.1171px); animation-timing-function: cubic-bezier(0.77,0,0.175,1); } 61.5384% { transform: translate(477.78px,65.1171px) rotate(-11.966634deg) translate(-12.7541px,-65.1171px); animation-timing-function: cubic-bezier(0.77,0,0.175,1); } 76.923% { transform: translate(477.78px,65.1171px) rotate(-7.42466deg) translate(-12.7541px,-65.1171px); animation-timing-function: cubic-bezier(0.77,0,0.175,1); } 84.6153% { transform: translate(477.78px,65.1171px) rotate(-11.966634deg) translate(-12.7541px,-65.1171px); animation-timing-function: cubic-bezier(0.77,0,0.175,1); } 100% { transform: translate(477.78px,65.1171px) rotate(0deg) translate(-12.7541px,-65.1171px); } }
    </style>
    <title>tree_swing</title>
    <g id="tree" transform="translate(397,337.503) translate(-397,-337.503)">
        <path d="M515.11,787.003C515.11,787.003,566.527,649.892,538.182,565.517C509.837,481.141,487.425,484.437,487.425,484.437C487.425,484.437,449.192,474.549,401.731,503.553C354.269,532.557,341.745,541.127,314.718,529.262C287.692,517.396,282.418,498.939,216.5,500.917C216.5,500.917,251.436,481.8,285.714,498.939C319.992,516.078,343.063,525.306,378,498.939C412.937,472.572,461.057,438.294,507.859,458.729C507.859,458.729,473.582,425.11,462.376,425.11C451.169,425.11,398.435,419.837,381.296,402.039C381.296,402.039,356.906,384.9,313.4,427.088C269.894,469.276,280.44,469.276,241.549,465.98C202.657,462.684,172.334,443.567,172.334,443.567C172.334,443.567,217.818,462.025,245.504,452.796C273.189,443.567,296.92,408.631,321.31,396.765C345.7,384.9,360.202,369.079,393.161,386.218C393.161,386.218,379.318,329.528,352.951,334.143C326.583,338.757,268.575,334.802,229.683,307.775C229.683,307.775,198.701,307.116,184.859,313.708C184.859,313.708,221.114,292.614,252.096,307.775C283.077,322.936,365.475,320.959,365.475,320.959C365.475,320.959,358.224,224.718,344.381,218.126C330.539,211.534,339.108,194.395,313.4,191.099C313.4,191.099,345.041,187.144,350.973,208.897C356.906,230.651,397.775,347.986,397.775,347.986C397.775,347.986,422.825,398.084,450.51,386.218C478.196,374.353,439.963,307.775,439.963,307.775L392.502,286.022C392.502,286.022,428.098,284.704,449.851,305.139C471.604,325.573,472.923,391.492,472.923,391.492C472.923,391.492,527.635,399.402,540.819,429.065C540.819,429.065,549.388,402.698,532.908,386.877C528.789,382.922,524.463,376.042,520.291,367.946C516.369,360.243,513.05,352.247,510.364,344.03C507.678,335.813,505.633,327.4,504.248,318.867C502.864,310.334,502.142,301.706,502.092,293.061C502.041,284.417,502.661,275.781,503.946,267.232C506.401,250.367,507.913,233.877,505.223,229.991C499.29,221.422,474.241,168.687,472.263,154.844C470.286,141.001,474.241,111.997,474.241,111.997C474.241,111.997,474.9,147.593,482.81,158.799C490.721,170.006,513.133,225.377,513.133,225.377C513.133,225.377,524.998,200.987,538.841,195.055C552.684,189.122,573.778,152.867,565.868,135.069C565.868,135.069,575.756,162.755,567.845,178.575C559.935,194.395,537.523,212.853,537.523,212.853C537.523,212.853,513.133,295.251,531.59,329.528C550.047,363.806,585.643,402.039,583.666,427.088L583.666,441.59C583.666,441.59,623.217,404.016,620.58,391.492C617.943,378.967,614.647,349.304,589.598,331.506C564.549,313.708,548.07,285.363,565.868,244.494C583.666,203.624,583.666,196.373,583.666,196.373L571.8,247.13C571.8,247.13,565.209,292.614,583.666,308.434C602.123,324.255,626.513,353.259,626.513,353.259L621.239,258.336C621.239,258.336,619.921,180.552,695.727,146.934L743.848,126.499L694.409,157.481C694.409,157.481,635.082,210.216,639.037,242.516C642.992,274.816,638.378,295.91,638.378,295.91C638.378,295.91,675.293,248.449,718.799,232.628C762.305,216.808,789.332,161.436,789.332,161.436L826.246,132.432L795.923,168.687C795.923,168.687,786.695,211.534,734.619,241.857C682.544,272.179,648.925,317.004,646.948,344.69C644.97,372.375,642.992,396.765,642.992,396.765C642.992,396.765,740.552,393.469,762.305,350.622C784.058,307.775,786.036,222.74,807.13,208.897C828.224,195.055,867.775,177.916,867.775,177.916L823.609,214.171C823.609,214.171,814.381,243.834,816.358,264.928C818.336,286.022,801.856,305.798,801.856,305.798C801.856,305.798,847.34,289.977,872.389,259.655C897.438,229.332,926.442,201.646,926.442,201.646C926.442,201.646,891.505,253.722,891.505,255.7C891.505,257.677,870.411,278.112,873.048,290.636C875.685,303.161,832.838,317.663,832.838,317.663L789.332,342.712L775.489,374.353C775.489,374.353,832.179,375.671,861.842,409.29C891.505,442.908,965.334,452.796,965.334,452.796L923.805,464.002C923.805,464.002,884.254,450.818,846.681,426.429C809.107,402.039,813.062,380.286,766.26,404.675C719.458,429.065,655.517,449.5,655.517,449.5C655.517,449.5,692.431,432.361,759.009,473.89C825.587,515.419,896.779,487.733,896.779,487.733C896.779,487.733,880.958,518.055,847.34,520.033C813.721,522.011,726.05,466.639,696.386,482.459C666.723,498.28,652.88,478.504,641.015,518.055C629.15,557.606,607.396,665.713,632.445,726.358L657.494,787.003Z" fill="#3f3d56" transform="translate(-172.334,-111.997)"/>
        <path d="M763.305,350.622C745.632,385.433,677.923,394.137,653.145,396.178C652.451,405.114,651.992,410.765,651.992,410.765C651.992,410.765,749.552,407.469,771.305,364.622C793.058,321.775,795.036,236.74,816.13,222.897C818.367,221.429,820.813,219.924,823.396,218.406C824.121,215.746,824.609,214.171,824.609,214.171L868.775,177.916C868.775,177.916,829.224,195.055,808.13,208.897C787.036,222.74,785.058,307.775,763.305,350.622Z" opacity="0.1" transform="translate(-172.334,-111.997)"/>
        <path d="M823.111,296.994C822.427,299.051,821.655,301.079,820.796,303.07C819.938,305.061,818.994,307.014,817.967,308.924C816.941,310.834,815.833,312.699,814.646,314.514C813.459,316.329,812.195,318.092,810.856,319.798C810.856,319.798,850.461,306.019,876.11,279.538C881.094,268.601,892.505,257.155,892.505,255.7C892.505,253.722,927.442,201.646,927.442,201.646C927.442,201.646,898.438,229.332,873.389,259.655C859.193,276.84,838.435,289.365,823.111,296.994Z" opacity="0.1" transform="translate(-172.334,-111.997)"/>
        <path d="M584.666,308.434C584.211,308.045,583.775,307.632,583.351,307.207C585.332,313.28,588.296,318.689,592.666,322.434C611.123,338.255,635.513,367.259,635.513,367.259L630.239,272.336C630.239,272.336,629.37,220.612,670.156,183.292C672.135,181.023,674.147,178.783,676.191,176.572C678.234,174.361,680.309,172.179,682.415,170.027C684.52,167.875,686.656,165.753,688.822,163.661C690.988,161.57,693.184,159.51,695.409,157.481L744.848,126.499L696.727,146.934C620.921,180.552,622.239,258.336,622.239,258.336L627.513,353.259C627.513,353.259,603.123,324.255,584.666,308.434Z" opacity="0.1" transform="translate(-172.334,-111.997)"/>
        <path d="M649.629,284.027C649.485,300.257,647.378,309.91,647.378,309.91C647.378,309.91,684.277,262.469,727.771,246.638C730.342,245.012,732.95,243.411,735.619,241.857C787.695,211.534,796.923,168.687,796.923,168.687L827.246,132.432L790.332,161.436C790.332,161.436,763.305,216.808,719.799,232.628C690.143,243.412,663.555,268.893,649.629,284.027Z" opacity="0.1" transform="translate(-172.334,-111.997)"/>
        <path d="M592.666,441.088L592.666,455.59C592.666,455.59,632.217,418.016,629.58,405.492C627.564,395.913,625.149,376.315,612.927,359.662C618.436,372.247,620.113,384.523,621.58,391.492C623.471,400.473,603.669,422.334,592.312,433.985C592.412,434.57,592.494,435.159,592.559,435.75C592.623,436.34,592.67,436.932,592.7,437.526C592.729,438.119,592.741,438.713,592.736,439.307C592.73,439.901,592.707,440.495,592.666,441.088Z" opacity="0.1" transform="translate(-172.334,-111.997)"/>
        <path d="M539.612,341.567C539.925,342.235,540.248,342.892,540.59,343.528C550.698,362.301,565.938,382.256,577.34,400.586C568.125,382.434,552.088,361.676,539.612,341.567Z" opacity="0.1" transform="translate(-172.334,-111.997)"/>
        <path d="M760.009,473.89C738.325,460.364,719.79,453.065,704.649,449.367C688.767,455.345,675.695,459.802,669.118,461.991C680.914,458.937,715.09,454.881,768.009,487.89C809.529,513.789,852.842,512.768,879.565,508.331C881.407,506.942,883.178,505.461,884.871,503.894C886.565,502.327,888.179,500.676,889.707,498.948C891.236,497.219,892.676,495.415,894.024,493.543C895.372,491.67,896.625,489.731,897.779,487.733C897.779,487.733,826.587,515.419,760.009,473.89Z" opacity="0.1" transform="translate(-172.334,-111.997)"/>
        <path d="M571.748,313.503C566.433,300.479,565.557,284.981,571.664,266.82C571.645,265.175,571.654,263.53,571.692,261.886C571.73,260.241,571.796,258.597,571.891,256.955C571.986,255.313,572.109,253.673,572.261,252.035C572.412,250.397,572.592,248.762,572.8,247.13L583.18,202.729C581.266,209.132,576.888,221.485,566.868,244.493C554.183,273.622,558.917,296.383,571.748,313.503Z" opacity="0.1" transform="translate(-172.334,-111.997)"/>
        <path d="M862.842,409.29C842.27,385.975,808.706,378.197,790.06,375.618L784.489,388.353C784.489,388.353,841.179,389.671,870.842,423.29C887.292,441.933,917.319,453.275,940.81,459.683L966.334,452.796C966.334,452.796,892.505,442.908,862.842,409.29Z" opacity="0.1" transform="translate(-172.334,-111.997)"/>
        <path d="M459.51,400.218C487.196,388.353,448.963,321.775,448.963,321.775L447.917,321.296C457.449,341.406,471.273,377.749,451.51,386.218C433.018,394.144,415.704,374.426,406.243,360.456C406.587,361.444,406.775,361.986,406.775,361.986C406.775,361.986,431.824,412.084,459.51,400.218Z" opacity="0.1" transform="translate(-172.334,-111.997)"/>
        <path d="M549.819,443.065C549.819,443.065,558.161,417.351,542.489,401.474C546.332,415.151,541.819,429.065,541.819,429.065C531.62,406.119,496.576,396.191,481.227,392.871C481.822,400.511,481.923,405.492,481.923,405.492C481.923,405.492,536.635,413.402,549.819,443.065Z" opacity="0.1" transform="translate(-172.334,-111.997)"/>
        <path d="M583.18,202.729C584.665,197.759,584.666,196.373,584.666,196.373Z" opacity="0.1" transform="translate(-172.334,-111.997)"/>
        <path d="M254.104,466.922C254.237,466.879,254.372,466.84,254.504,466.796C282.189,457.567,305.92,422.631,330.31,410.765C354.7,398.9,369.202,383.08,402.161,400.218C402.161,400.218,396.395,376.616,385.221,361.109C386.146,363.132,387.027,365.174,387.863,367.235C388.699,369.296,389.49,371.375,390.236,373.47C390.982,375.565,391.682,377.676,392.337,379.802C392.991,381.927,393.599,384.066,394.161,386.218C361.202,369.08,346.7,384.9,322.31,396.765C297.92,408.631,274.189,443.567,246.504,452.796C218.818,462.025,173.334,443.567,173.334,443.567C173.334,443.567,203.657,462.684,242.549,465.98C246.998,466.357,250.794,466.689,254.104,466.922Z" opacity="0.1" transform="translate(-172.334,-111.997)"/>
        <path d="M230.683,307.775C231.961,308.657,233.254,309.514,234.563,310.348C235.872,311.181,237.197,311.99,238.536,312.775C239.875,313.559,241.228,314.319,242.595,315.054C243.963,315.788,245.343,316.497,246.737,317.181C247.98,317.39,249.215,317.644,250.44,317.942C251.665,318.239,252.879,318.581,254.08,318.965C255.281,319.349,256.468,319.776,257.638,320.245C258.808,320.714,259.961,321.224,261.095,321.775C281.027,331.529,322.236,334.189,349.098,334.846C350.809,334.64,352.438,334.407,353.951,334.143C354.724,334.005,355.505,333.921,356.289,333.89C357.073,333.859,357.859,333.881,358.64,333.957C359.421,334.033,360.196,334.162,360.96,334.343C361.723,334.524,362.474,334.757,363.206,335.04C370.184,335.061,374.475,334.959,374.475,334.959C374.475,334.959,367.224,238.718,353.381,232.126C353.277,232.076,353.185,232.02,353.083,231.969C361.901,260.257,366.475,320.959,366.475,320.959C366.475,320.959,284.077,322.936,253.095,307.775C222.114,292.614,185.859,313.708,185.859,313.708C199.702,307.116,230.683,307.775,230.683,307.775Z" opacity="0.1" transform="translate(-172.334,-111.997)"/>
        <path d="M528.926,787.003C541.004,749.977,570.051,647.592,547.182,579.517C537.306,550.118,528.152,531.371,520.413,519.411C526.2,530.733,532.528,545.708,539.182,565.517C567.527,649.892,516.11,787.003,516.11,787.003Z" opacity="0.1" transform="translate(-172.334,-111.997)"/>
        <path d="M271.496,506.219C273.511,506.423,275.516,506.719,277.504,507.104C279.493,507.49,281.463,507.965,283.409,508.528C285.355,509.091,287.274,509.742,289.161,510.478C291.048,511.214,292.901,512.036,294.714,512.939C321.785,526.475,341.871,535.059,366.328,525.089C371.9,522.146,378.132,518.504,385.318,514.168C385.879,513.759,386.434,513.367,387,512.939C421.937,486.572,470.057,452.294,516.859,472.729C516.859,472.729,507.401,463.454,496.797,454.648C453.9,444.124,410.94,474.833,379,498.939C344.063,525.306,320.992,516.078,286.714,498.939C252.436,481.8,217.5,500.917,217.5,500.917C242.969,500.152,259.38,502.44,271.496,506.219Z" opacity="0.1" transform="translate(-172.334,-111.997)"/>
        <path d="M338.405,211.727C338.593,212.043,338.791,212.353,338.998,212.656C339.206,212.96,339.423,213.257,339.65,213.546C339.876,213.836,340.112,214.118,340.356,214.393C340.601,214.667,340.854,214.934,341.116,215.192C340.924,214.879,340.723,214.571,340.513,214.27C340.303,213.968,340.085,213.672,339.859,213.383C339.632,213.093,339.398,212.81,339.155,212.534C338.913,212.258,338.663,211.989,338.405,211.727Z" opacity="0.1" transform="translate(-172.334,-111.997)"/>
        <path d="M458.851,319.139C459.106,319.379,459.356,319.624,459.603,319.873C459.85,320.122,460.092,320.375,460.33,320.632C460.569,320.889,460.803,321.15,461.033,321.415C461.262,321.679,461.488,321.948,461.709,322.22C458.821,315.278,455.255,309.276,450.851,305.139C429.098,284.704,393.502,286.022,393.502,286.022L438.143,306.483C440.05,307.194,441.922,307.996,443.752,308.887C445.582,309.777,447.368,310.755,449.105,311.816C450.841,312.877,452.526,314.021,454.153,315.244C455.781,316.466,457.348,317.766,458.851,319.139Z" opacity="0.1" transform="translate(-172.334,-111.997)"/>
        <path d="M506.223,229.991C508.913,233.877,507.401,250.367,504.946,267.232C503.661,275.781,503.041,284.417,503.092,293.061C503.142,301.706,503.863,310.334,505.248,318.867C506.633,327.4,508.678,335.813,511.364,344.03C514.05,352.247,517.369,360.243,521.291,367.947C521.816,368.985,522.356,370.016,522.912,371.038C523.467,372.06,524.038,373.074,524.624,374.08C525.209,375.085,525.81,376.082,526.425,377.069C527.041,378.057,527.671,379.035,528.315,380.004C524.576,372.411,521.418,364.546,518.868,356.477C516.319,348.407,514.385,340.155,513.084,331.792C511.783,323.43,511.118,314.981,511.094,306.518C511.071,298.055,511.69,289.602,512.946,281.232C515.401,264.367,516.913,247.877,514.223,243.991C508.29,235.422,483.241,182.687,481.263,168.844C481.115,167.502,480.995,166.158,480.904,164.811C480.813,163.464,480.75,162.115,480.715,160.765C480.681,159.416,480.675,158.066,480.697,156.716C480.72,155.366,480.771,154.017,480.85,152.669C475.73,138.141,475.241,111.997,475.241,111.997C475.241,111.997,471.286,141.001,473.263,154.844C475.241,168.687,500.29,221.422,506.223,229.991Z" opacity="0.1" transform="translate(-172.334,-111.997)"/>
        <path d="M522.133,239.377C522.133,239.377,528.52,226.26,537.385,216.925C538.089,214.32,538.523,212.853,538.523,212.853C538.523,212.853,560.935,194.395,568.845,178.575C574.968,166.329,570.429,146.982,568.064,138.861C571.991,157.567,552.762,189.517,539.841,195.054C528.636,199.857,518.73,216.747,515.36,223.012C519.331,232.454,522.133,239.377,522.133,239.377Z" opacity="0.1" transform="translate(-172.334,-111.997)"/>
        <path d="M568.064,138.861C567.998,138.536,567.924,138.212,567.841,137.891C567.758,137.569,567.666,137.25,567.566,136.933C567.466,136.617,567.358,136.303,567.242,135.992C567.125,135.681,567,135.373,566.868,135.069C566.868,135.069,567.374,136.491,568.064,138.861Z" opacity="0.1" transform="translate(-172.334,-111.997)"/>
        <path d="M335.237,205.25C341.047,205.961,347.729,207.744,352.827,211.878C352.494,210.753,352.204,209.745,351.973,208.898C346.041,187.144,314.4,191.1,314.4,191.1C328.699,192.933,332.392,199.049,335.237,205.25Z" opacity="0.1" transform="translate(-172.334,-111.997)"/>
    </g>
    <g id="swing" transform="translate(586,362) translate(-45.6683,-3.99432)" style="animation: 1.3s linear infinite both swing_t;">
        <g id="sea_t" transform="translate(49,230.5) translate(-49,-9.5)">
            <rect id="seat" width="98" height="19" fill="#6c63ff" transform="translate(-540.332,-579.006) translate(540.332,579.006)"/>
        </g>
        <g id="string_l" transform="translate(47.5256,120.5) translate(-6.52539,-120.5)">
            <path id="string_l-2" d="M761.666,711.003C760.616,711.002,759.576,710.794,758.606,710.391C757.636,709.989,756.754,709.4,756.012,708.657C755.269,707.914,754.68,707.033,754.277,706.063C753.875,705.093,753.667,704.053,753.666,703.003L753.666,478.003C753.666,476.49,754.095,475.008,754.903,473.73C755.711,472.451,756.865,471.427,758.231,470.778C759.597,470.128,761.12,469.879,762.622,470.06C764.124,470.241,765.544,470.844,766.717,471.799L765.453,473.35C764.573,472.633,763.508,472.181,762.382,472.046C761.256,471.91,760.114,472.097,759.089,472.584C758.065,473.071,757.199,473.839,756.593,474.798C755.987,475.757,755.666,476.868,755.666,478.003L755.666,703.003C755.667,703.791,755.823,704.57,756.124,705.298C756.426,706.025,756.868,706.687,757.425,707.244C757.982,707.801,758.643,708.243,759.371,708.544C760.098,708.846,760.878,709.002,761.666,709.003Z" fill="#3f3d56" transform="translate(-753.666,-470.003)"/>
        </g>
        <g id="string_r" transform="translate(54.8937,114.322) translate(-2.10646,-112.526)">
            <path d="M769.666,696.85L767.666,696.85L767.666,478.003C767.667,477.558,767.618,477.115,767.52,476.682C767.423,476.248,767.277,475.827,767.086,475.426C766.896,475.024,766.661,474.645,766.386,474.296C766.111,473.947,765.798,473.629,765.453,473.35L766.717,471.799C767.177,472.172,767.594,472.595,767.96,473.061C768.326,473.527,768.639,474.032,768.894,474.567C769.148,475.102,769.342,475.664,769.472,476.242C769.602,476.82,769.667,477.41,769.666,478.003Z" fill="#3f3d56" transform="translate(-765.453,-471.799)"/>
        </g>
        <g id="lady" transform="translate(73.2255,196.435) translate(-59.7745,-97.3315)">
            <g id="hand_l" transform="translate(54.4487,71.1799) translate(-27.2353,-24.6731)">
                <path d="M791.096,642.007C791.096,642.007,802.408,630.14,807.037,632.528C811.667,634.915,793.725,645.527,793.725,645.527Z" opacity="0.1" transform="translate(-753.33,-615.613)"/>
                <path d="M756.582,616.106C756.582,616.106,752.424,623.56,753.512,631.594C754.6,639.629,764.551,665.412,767.934,664.954C771.317,664.495,796.377,646.029,796.377,646.029L791.598,639.356L773.291,650.448C773.291,650.448,770.502,610.776,756.582,616.106Z" opacity="0.1" transform="translate(-753.33,-615.613)"/>
                <path d="M791.096,642.007C791.096,642.007,802.408,630.14,807.037,632.528C811.667,634.915,793.725,645.527,793.725,645.527Z" fill="#ffb9b9" transform="translate(-753.33,-615.613)"/>
                <path d="M756.582,616.106C756.582,616.106,752.424,623.56,753.512,631.594C754.6,639.629,764.551,665.412,767.934,664.954C771.317,664.495,796.377,646.029,796.377,646.029L791.598,639.356L773.291,650.448C773.291,650.448,770.502,610.776,756.582,616.106Z" fill="#d0cde1" transform="translate(-753.33,-615.613)"/>
            </g>
            <g id="ipad" transform="translate(80.0267,66.0313) translate(-19.2947,-15.016)">
                <path id="ipad_edge" d="M824.464,634.251L795.924,649.927C795.759,650.037,795.571,650.109,795.375,650.139C795.178,650.168,794.978,650.155,794.787,650.098C794.597,650.042,794.421,649.945,794.272,649.813C794.123,649.682,794.005,649.519,793.926,649.337L786.935,634.724C786.869,634.517,786.84,634.3,786.851,634.084C786.861,633.867,786.91,633.654,786.995,633.455C787.08,633.255,787.2,633.073,787.35,632.915C787.499,632.758,787.675,632.629,787.87,632.533L811.564,620.32C811.709,620.233,811.869,620.173,812.035,620.143C812.201,620.114,812.371,620.115,812.537,620.147C812.703,620.178,812.862,620.24,813.005,620.329C813.149,620.418,813.275,620.532,813.377,620.666L825.213,631.817C825.33,632.025,825.403,632.254,825.428,632.491C825.453,632.727,825.43,632.967,825.36,633.194C825.29,633.422,825.174,633.633,825.02,633.815C824.866,633.996,824.677,634.144,824.464,634.251Z" fill="#2f2e41" transform="translate(-786.849,-620.122)"/>
                <path id="screen" fill="#6c63ff" d="M650.225,520.094L623.47,535.387L616.35,522.555L639.302,510.073L650.225,520.094Z" transform="translate(-614.515,-508.125)"/>
                <ellipse id="ipad-2" rx="0.39386" ry="0.33582" fill="#f2f2f2" transform="translate(-981.208,219.487) rotate(-50.1585) translate(799.853,627.456)"/>
            </g>
            <g id="leg_left" style="animation: 1.3s linear infinite both a0_t;">
                <g style="animation: 1.3s linear infinite both a1_t;">
                    <g transform="translate(69.6467,108.028) rotate(6.87269)" style="animation: 1.3s linear infinite both leg_left_t;">
                        <path id="legl" d="M809.053,677.134C809.053,677.134,822.282,678.841,821.855,686.95C821.428,695.058,811.613,728.77,811.613,728.77L810.76,741.999C810.76,741.999,811.613,764.19,809.053,763.763C806.492,763.337,800.518,747.974,800.518,747.974C800.518,747.974,793.263,743.28,796.677,739.012C800.091,734.745,802.651,735.172,801.798,730.477C800.944,725.783,801.371,706.153,803.932,700.179C806.492,694.204,807.984,690.909,807.984,690.909L799.664,690.364Z" fill="#ffb9b9" transform="translate(-795.763,-677.134)"/>
                        <path id="leg_l_shadow" d="M809.053,677.134C809.053,677.134,822.282,678.841,821.855,686.95C821.428,695.058,811.613,728.77,811.613,728.77L810.76,741.999C810.76,741.999,811.613,764.19,809.053,763.763C806.492,763.337,800.518,747.974,800.518,747.974C800.518,747.974,793.263,743.28,796.677,739.012C800.091,734.745,802.651,735.172,801.798,730.477C800.944,725.783,801.371,706.153,803.932,700.179C806.492,694.204,807.984,690.909,807.984,690.909L799.664,690.364Z" opacity="0.1" transform="translate(-795.763,-677.134)"/>
                    </g>
                </g>
            </g>
            <g id="leg_right" style="animation: 1.3s linear infinite both a2_t;">
                <g style="animation: 1.3s linear infinite both a3_t;">
                    <g transform="translate(74.8277,110.161) rotate(10.033)" style="animation: 1.3s linear infinite both leg_right_t;">
                        <path id="leg_r2" d="M809.906,679.268C809.906,679.268,822.708,682.255,823.989,690.79C825.269,699.325,831.67,724.503,831.67,724.503L838.498,740.293C838.498,740.293,849.167,759.496,844.472,759.069C839.778,758.643,833.377,749.254,831.243,749.254C829.11,749.254,822.708,746.694,823.135,744.987C823.562,743.28,826.549,738.159,826.549,738.159L816.225,720.174C815.727,719.307,815.259,718.424,814.822,717.525C814.385,716.627,813.979,715.713,813.605,714.786C813.23,713.86,812.888,712.921,812.578,711.971C812.268,711.021,811.991,710.06,811.746,709.091C810.686,704.879,809.479,699.719,809.479,698.045C809.479,695.058,800.944,693.777,800.944,693.777Z" fill="#ffb9b9" transform="translate(-800.944,-679.268)"/>
                    </g>
                </g>
            </g>
            <path id="skirt" d="M768.085,651.956L774.06,669.026C774.06,669.026,783.448,671.587,790.276,673.72C797.104,675.854,809.906,672.867,811.186,677.988C812.467,683.109,808.626,692.07,804.785,694.204C800.944,696.338,798.811,698.472,786.435,695.058C774.06,691.644,744.614,690.79,744.614,690.79C743.904,691.217,743.169,691.601,742.414,691.942C741.658,692.283,740.884,692.58,740.094,692.832C739.305,693.083,738.501,693.288,737.688,693.446C736.874,693.604,736.052,693.715,735.226,693.777C729.678,694.204,728.398,694.631,726.691,693.351C724.984,692.07,727.544,692.07,728.398,688.656C729.251,685.243,729.678,686.523,733.519,682.682C737.36,678.841,740.347,667.319,742.481,663.479C744.614,659.638,745.895,651.956,745.895,651.956Z" fill="#2f2e41" transform="translate(-726.117,-569.107)" style="animation: 1.3s linear infinite both skirt_d;"/>
            <path id="neck" d="M767.232,601.174C766.459,601.738,765.754,602.39,765.13,603.115C764.506,603.84,763.967,604.635,763.525,605.483C763.082,606.332,762.739,607.228,762.501,608.155C762.263,609.081,762.132,610.032,762.111,610.989C762.111,617.39,749.308,604.161,749.308,604.161C749.308,604.161,756.136,595.626,756.136,593.066C756.136,590.505,767.232,601.174,767.232,601.174Z" fill="#ffb9b9" transform="translate(-726.117,-569.107)"/>
            <path id="shirt" d="M751.015,598.613C751.015,598.613,758.697,601.601,760.404,605.868C762.111,610.136,768.512,619.097,768.512,619.097C768.512,619.097,777.474,628.486,774.486,638.727C771.499,648.969,768.939,651.53,768.939,653.237C768.939,654.944,764.671,657.931,761.257,657.504C757.843,657.077,745.041,655.37,744.187,653.663C743.334,651.956,738.213,627.632,741.627,618.67C742.319,616.959,743.034,615.256,743.772,613.564C744.51,611.871,745.27,610.189,746.053,608.516C746.836,606.844,747.641,605.182,748.468,603.532C749.295,601.881,750.144,600.241,751.015,598.613Z" fill="#d0cde1" transform="translate(-726.117,-569.107)"/>
            <path id="hear_black" d="M769.968,591.495C772.737,592.152,775.455,590.388,777.724,588.639C779.012,587.645,780.431,586.229,780.036,584.63C779.686,583.211,778.015,582.407,777.771,580.966C777.602,579.964,778.188,578.99,778.235,577.974C778.215,577.589,778.141,577.209,778.017,576.844C777.893,576.479,777.719,576.132,777.501,575.814C777.283,575.496,777.023,575.209,776.727,574.962C776.431,574.715,776.103,574.509,775.751,574.35C774.402,573.624,772.871,573.321,771.485,572.671C769.369,571.678,767.609,569.888,765.349,569.314C762.26,568.531,759.116,570.199,755.94,570.415C754.019,570.546,752.073,570.14,750.172,570.456C749.272,570.638,748.409,570.969,747.618,571.436C746.827,571.902,746.12,572.498,745.526,573.198C744.932,573.899,744.459,574.693,744.127,575.549C743.795,576.406,743.608,577.311,743.575,578.229C743.55,579.587,743.822,581.102,743.011,582.18C742.931,582.272,742.849,582.362,742.763,582.45C742.678,582.537,742.589,582.622,742.499,582.705C742.408,582.787,742.315,582.866,742.219,582.942C742.124,583.019,742.026,583.092,741.925,583.163C739.102,585.446,737.82,589.261,737.674,592.937C737.602,594.746,737.981,596.894,739.586,597.663C739.8,597.737,740.018,597.8,740.238,597.852C740.459,597.905,740.681,597.947,740.906,597.978C741.13,598.009,741.356,598.029,741.582,598.039C741.808,598.048,742.035,598.047,742.261,598.035C742.488,598.025,742.716,598.044,742.938,598.089C743.161,598.135,743.377,598.207,743.583,598.305C743.788,598.403,743.98,598.526,744.155,598.67C744.331,598.815,744.488,598.98,744.623,599.163C745.354,600.452,744.259,602.357,745.215,603.483C745.934,604.328,747.335,604.047,748.174,603.327C749.012,602.607,749.536,601.571,750.331,600.8C751.878,599.302,754.172,599.031,756.292,598.803C756.448,598.802,756.604,598.788,756.758,598.763C756.911,598.738,757.063,598.701,757.211,598.652C757.359,598.604,757.504,598.544,757.642,598.473C757.781,598.402,757.915,598.321,758.041,598.229C758.137,598.129,758.224,598.021,758.303,597.908C758.382,597.794,758.453,597.674,758.513,597.55C758.574,597.425,758.625,597.296,758.666,597.164C758.707,597.031,758.738,596.896,758.758,596.759C758.828,596.442,758.88,596.122,758.916,595.8C758.951,595.477,758.969,595.153,758.97,594.829C758.971,594.505,758.955,594.181,758.921,593.858C758.887,593.536,758.837,593.215,758.769,592.898C758.735,592.8,758.709,592.7,758.69,592.598C758.671,592.497,758.659,592.394,758.655,592.29C758.651,592.187,758.655,592.084,758.665,591.981C758.676,591.878,758.694,591.776,758.72,591.676C758.755,591.604,758.794,591.536,758.839,591.47C758.883,591.404,758.932,591.341,758.984,591.282C759.037,591.223,759.094,591.167,759.155,591.116C759.215,591.064,759.279,591.017,759.346,590.975C760.66,589.988,762.962,588.55,764.67,588.822C766.565,589.124,768.056,591.042,769.968,591.495Z" fill="#2f2e41" transform="translate(-726.117,-569.107)"/>
            <path id="hand_right" d="M752.722,613.976C752.722,613.976,747.601,620.804,747.601,628.912C747.601,637.02,754.003,663.905,757.417,663.905C760.83,663.905,788.142,648.969,788.142,648.969L784.301,641.715L764.671,650.249C764.671,650.249,767.232,610.562,752.722,613.976Z" fill="#d0cde1" transform="translate(-726.117,-569.107)"/>
            <path id="palm_right" d="M783.448,644.275C783.448,644.275,796.25,634.033,800.518,637.02C804.785,640.008,785.582,648.116,785.582,648.116Z" fill="#ffb9b9" transform="translate(-726.117,-569.107)"/>
            <ellipse id="neck_shadow" rx="1" ry="3" fill="#6c63ff" transform="translate(-927.116,25.6264) rotate(-38.7683) translate(744.666,583.003)"/>
            <ellipse id="head" fill="#ffb9b9" rx="12.3756" ry="12.3756" transform="translate(-553.783,-457.109) translate(594.044,478.935)"/>
        </g>
        <ellipse rx="0.26258" ry="0.22388" fill="#f2f2f2" transform="translate(-913.535,381.951) rotate(-50.1585) translate(809.787,640.585)"/>
    </g>
    <rect width="806" height="2" fill="#3f3d56" transform="translate(0,0) translate(49.3318,674.006)"/>
    <g id="flower" transform="translate(409.374,643.254) translate(-107.958,-32.5585)">
        <g transform="translate(179.639,64.6939) translate(0,-54.5959)" style="animation: 1.3s linear infinite both a4_t;">
            <path id="mr" d="M660.864,753.135C651.033,768.211,653.727,787.386,653.727,787.386C653.727,787.386,672.36,782.118,682.191,767.042C692.022,751.965,689.328,732.79,689.328,732.79C689.328,732.79,670.695,738.059,660.864,753.135Z" fill="#3f3d56" transform="translate(-653.39,-732.79)"/>
        </g>
        <g transform="translate(181.78,65.1171) translate(-12.7541,-65.1171)" style="animation: 1.3s linear infinite both a5_t;">
            <path id="ml" d="M668.249,755.8C667.472,773.782,654.124,787.809,654.124,787.809C654.124,787.809,642.036,772.683,642.813,754.701C643.59,736.72,656.938,722.692,656.938,722.692C656.938,722.692,669.026,737.819,668.249,755.8Z" fill="#6c63ff" transform="translate(-642.777,-722.692)"/>
        </g>
        <g transform="translate(51.3211,64.2797) translate(-27.4153,-62.9164)" style="animation: 1.3s linear infinite both a6_t;">
            <path id="lr" d="M499.075,758.838C503.775,776.212,519.874,786.972,519.874,786.972C519.874,786.972,528.352,769.563,523.652,752.189C518.952,734.816,502.854,724.055,502.854,724.055C502.854,724.055,494.375,741.464,499.075,758.838Z" fill="#3f3d56" transform="translate(-497.656,-724.055)"/>
        </g>
        <g transform="translate(46.7033,64.2655) translate(-46.7033,-45.4638)" style="animation: 1.3s linear infinite both a7_t;">
            <path id="ll" d="M505.982,755.104C518.878,767.659,520.454,786.958,520.454,786.958C520.454,786.958,501.119,785.902,488.222,773.348C475.326,760.793,473.75,741.494,473.75,741.494C473.75,741.494,493.085,742.55,505.982,755.104Z" fill="#6c63ff" transform="translate(-473.75,-741.494)"/>
        </g>
        <g transform="translate(475.639,64.6939) translate(0,-54.5959)" style="animation: 1.3s linear infinite both a8_t;">
            <path id="rr" d="M956.864,753.135C947.033,768.211,949.727,787.386,949.727,787.386C949.727,787.386,968.36,782.118,978.191,767.042C988.022,751.965,985.328,732.79,985.328,732.79C985.328,732.79,966.695,738.059,956.864,753.135Z" fill="#3f3d56" transform="translate(-949.39,-732.79)"/>
        </g>
        <g transform="translate(477.78,65.1171) translate(-12.7541,-65.1171)" style="animation: 1.3s linear infinite both a9_t;">
            <path id="rl" d="M964.249,755.8C963.472,773.782,950.124,787.809,950.124,787.809C950.124,787.809,938.036,772.683,938.813,754.701C939.59,736.72,952.938,722.692,952.938,722.692C952.938,722.692,965.026,737.819,964.249,755.8Z" fill="#6c63ff" transform="translate(-938.777,-722.692)"/>
        </g>
    </g>
    <g id="leaves" transform="translate(406.943,220.754) translate(-326.314,-169.32)">
        <path d="M463.236,284.044C462.115,302.007,448.501,315.776,448.501,315.776C448.501,315.776,436.704,300.421,437.825,282.458C438.947,264.494,452.561,250.725,452.561,250.725C452.561,250.725,464.357,266.08,463.236,284.044Z" fill="#6c63ff" transform="translate(-252.963,-163.431)"/>
        <path d="M321.32,170.482C336.545,180.081,342.098,198.631,342.098,198.631C342.098,198.631,322.967,201.618,307.742,192.019C292.517,182.42,286.963,163.871,286.963,163.871C286.963,163.871,306.095,160.883,321.32,170.482Z" fill="#6c63ff" transform="translate(-252.963,-163.431)"/>
        <path d="M287.32,389.482C302.545,399.081,308.098,417.631,308.098,417.631C308.098,417.631,288.967,420.618,273.742,411.019C258.517,401.42,252.963,382.871,252.963,382.871C252.963,382.871,272.095,379.883,287.32,389.482Z" fill="#6c63ff" transform="translate(-252.963,-163.431)"/>
        <path d="M368.32,473.482C383.545,483.081,389.098,501.631,389.098,501.631C389.098,501.631,369.967,504.618,354.742,495.019C339.517,485.42,333.963,466.871,333.963,466.871C333.963,466.871,353.095,463.883,368.32,473.482Z" fill="#6c63ff" transform="translate(-252.963,-163.431)"/>
        <path d="M596.84,202.498C592.248,219.901,576.217,230.761,576.217,230.761C576.217,230.761,567.63,213.406,572.222,196.003C576.813,178.6,592.844,167.74,592.844,167.74C592.844,167.74,601.431,185.095,596.84,202.498Z" fill="#6c63ff" transform="translate(-252.963,-163.431)"/>
        <path d="M741.675,216.068C736.279,233.238,719.76,243.34,719.76,243.34C719.76,243.34,711.99,225.604,717.387,208.434C722.783,191.264,739.302,181.161,739.302,181.161C739.302,181.161,747.072,198.897,741.675,216.068Z" fill="#6c63ff" transform="translate(-252.963,-163.431)"/>
        <path d="M898.22,407.165C888.444,422.277,869.831,427.614,869.831,427.614C869.831,427.614,867.067,408.449,876.842,393.337C886.618,378.224,905.231,372.888,905.231,372.888C905.231,372.888,907.995,392.053,898.22,407.165Z" fill="#6c63ff" transform="translate(-252.963,-163.431)"/>
    </g>
</svg>
