<?xml version="1.0" standalone="no"?>
<!DOCTYPE svg PUBLIC "-//W3C//DTD SVG 20010904//EN"
 "http://www.w3.org/TR/2001/REC-SVG-20010904/DTD/svg10.dtd">
<svg version="1.0" xmlns="http://www.w3.org/2000/svg"
 width="1600.000000pt" height="1600.000000pt" viewBox="0 0 1600.000000 1600.000000"
 preserveAspectRatio="xMidYMid meet">
<metadata>
Created by potrace 1.11, written by Peter Selinger 2001-2013
</metadata>
<g transform="translate(0.000000,1600.000000) scale(0.100000,-0.100000)"
fill="#000000" stroke="none">
<path d="M1389 12156 c-4 -4 -24 -7 -139 -21 -25 -3 -56 -10 -70 -15 -14 -5
-36 -11 -50 -14 -53 -9 -224 -75 -295 -113 -16 -9 -39 -21 -50 -27 -11 -6 -22
-14 -25 -17 -3 -3 -12 -9 -20 -12 -44 -21 -155 -103 -223 -166 -109 -101 -164
-162 -217 -241 -8 -12 -20 -28 -26 -34 -5 -6 -23 -35 -40 -63 -16 -29 -33 -53
-37 -53 -5 0 -5 -4 -2 -10 3 -5 1 -10 -4 -10 -6 0 -11 -9 -11 -20 0 -11 -4
-20 -10 -20 -5 0 -9 -3 -8 -7 1 -5 -9 -33 -24 -63 -15 -31 -36 -85 -48 -120
-12 -36 -24 -72 -27 -80 -3 -8 -7 -22 -8 -30 -1 -8 -7 -33 -13 -55 -10 -39
-14 -56 -29 -160 -10 -64 -10 -2219 -1 -2305 9 -76 23 -152 37 -197 5 -18 8
-33 6 -33 -2 0 8 -33 22 -72 52 -151 104 -264 149 -325 13 -17 24 -35 24 -40
0 -10 77 -114 127 -172 133 -152 285 -273 452 -357 76 -38 198 -89 241 -100 8
-2 42 -11 75 -19 92 -24 97 -25 140 -30 69 -7 117 -15 125 -20 5 -3 11 -1 15
5 4 6 12 7 18 3 7 -4 2015 -8 4462 -9 2448 -1 4461 -4 4475 -8 14 -3 45 -9 70
-12 25 -3 63 -10 85 -16 22 -5 47 -11 55 -13 31 -6 168 -54 223 -79 32 -14 61
-26 65 -26 4 -1 14 -7 22 -13 14 -11 40 -27 85 -51 28 -16 79 -49 85 -56 3 -4
26 -20 51 -38 67 -45 247 -228 294 -297 22 -33 43 -62 46 -65 11 -10 78 -127
111 -195 33 -66 88 -215 104 -280 4 -16 8 -32 9 -35 1 -3 5 -25 9 -50 5 -25
10 -54 13 -65 12 -56 14 -105 17 -417 6 -493 17 -599 77 -751 12 -29 22 -56
23 -62 4 -24 87 -178 128 -238 60 -87 187 -222 250 -265 13 -9 25 -19 28 -23
7 -9 102 -69 164 -103 58 -32 159 -72 236 -93 153 -41 171 -42 1260 -39 575 1
1061 5 1080 10 96 20 167 38 185 46 11 5 48 19 83 31 34 12 62 26 62 30 0 5 6
9 13 9 13 0 124 64 181 105 50 35 222 208 263 265 34 47 116 185 119 200 0 3
10 25 21 50 17 39 34 82 38 100 1 3 7 25 14 50 7 25 15 53 16 62 2 10 6 21 8
26 3 4 9 34 13 67 11 71 12 1100 2 1165 -15 95 -28 152 -53 222 -14 40 -27 78
-28 83 -10 34 -102 209 -122 231 -5 6 -17 22 -25 34 -95 142 -293 308 -463
388 -85 40 -234 90 -290 97 -23 2 -55 7 -72 11 -16 3 -417 7 -890 9 -795 3
-958 6 -1025 20 -14 3 -41 8 -60 11 -59 11 -131 31 -207 57 -40 14 -73 23 -73
19 0 -4 -4 -2 -8 3 -4 6 -34 23 -67 38 -33 15 -67 32 -75 37 -8 5 -35 21 -60
36 -66 39 -170 117 -170 126 0 4 -6 8 -12 8 -13 0 -228 218 -228 231 0 4 -6
14 -13 21 -22 22 -97 136 -97 147 0 6 -4 11 -10 11 -5 0 -10 6 -10 14 0 8 -6
21 -13 28 -7 7 -14 15 -14 18 0 3 -14 37 -32 75 -18 39 -39 90 -47 115 -8 25
-19 54 -24 65 -10 24 -47 184 -54 240 -15 105 -18 287 -21 1262 -1 576 -5
1068 -9 1093 -4 25 -14 77 -22 115 -8 39 -17 81 -20 95 -2 14 -12 45 -21 70
-10 25 -18 47 -18 50 -8 46 -94 230 -124 264 -9 10 -16 21 -15 25 2 9 -40 72
-90 139 -79 103 -285 302 -313 302 -6 0 -13 4 -15 9 -8 21 -268 166 -315 176
-10 1 -40 12 -68 23 -44 17 -125 39 -166 45 -8 2 -20 6 -26 10 -7 5 -13 6 -13
4 0 -2 -35 2 -77 9 -63 10 -966 13 -4549 13 -2459 1 -4473 -1 -4475 -3z"/>
</g>
</svg>
