<?xml version="1.0" encoding="UTF-8"?>
<svg width="22px" height="19px" viewBox="0 0 22 19" version="1.1" xmlns="http://www.w3.org/2000/svg" xmlns:xlink="http://www.w3.org/1999/xlink">
    <g id="Design-desktop" stroke="none" stroke-width="1" fill="none" fill-rule="evenodd">
        <g id="EP075-Materiaal-detailpagina---Groep" transform="translate(-527.000000, -734.000000)" fill="#0077C8" fill-rule="nonzero">
            <g id="archive-solid" transform="translate(527.000000, 734.000000)">
                <path d="M1.33482143,17.0238095 C1.33482143,17.7481399 1.93131975,18.3333333 2.66964286,18.3333333 L18.6875,18.3333333 C19.4258231,18.3333333 20.0223214,17.7481399 20.0223214,17.0238095 L20.0223214,5.23809524 L1.33482143,5.23809524 L1.33482143,17.0238095 Z M8.00892857,8.34821429 C8.00892857,8.078125 8.23417969,7.85714286 8.50948661,7.85714286 L12.8476562,7.85714286 C13.1229632,7.85714286 13.3482143,8.078125 13.3482143,8.34821429 L13.3482143,8.67559524 C13.3482143,8.94568452 13.1229632,9.16666667 12.8476562,9.16666667 L8.50948661,9.16666667 C8.23417969,9.16666667 8.00892857,8.94568452 8.00892857,8.67559524 L8.00892857,8.34821429 Z M20.0223214,0 L1.33482143,0 C0.596498326,0 0,0.585193452 0,1.30952381 L0,3.27380952 C0,3.63392857 0.300334821,3.92857143 0.667410714,3.92857143 L20.6897321,3.92857143 C21.056808,3.92857143 21.3571429,3.63392857 21.3571429,3.27380952 L21.3571429,1.30952381 C21.3571429,0.585193452 20.7606445,0 20.0223214,0 Z" id="Shape"></path>
            </g>
        </g>
    </g>
</svg>