<?xml version="1.0" encoding="UTF-8"?>
<svg width="10px" height="12px" viewBox="0 0 10 12" version="1.1" xmlns="http://www.w3.org/2000/svg" xmlns:xlink="http://www.w3.org/1999/xlink">
    <g id="Symbols" stroke="none" stroke-width="1" fill="none" fill-rule="evenodd">
        <g id="Components/Cards/Groep" transform="translate(-45.000000, -127.000000)" fill="#0077C8" fill-rule="nonzero">
            <g id="Group" transform="translate(43.000000, 127.000000)">
                <g id="copy-solid" transform="translate(2.000000, 0.000000)">
                    <path d="M7.14285714,10.5 L7.14285714,11.4375 C7.14285714,11.7481641 6.90301339,12 6.60714286,12 L0.535714286,12 C0.23984375,12 0,11.7481641 0,11.4375 L0,2.8125 C0,2.50183594 0.23984375,2.25 0.535714286,2.25 L2.14285714,2.25 L2.14285714,9.1875 C2.14285714,9.91122656 2.70359375,10.5 3.39285714,10.5 L7.14285714,10.5 Z M7.14285714,2.4375 L7.14285714,0 L3.39285714,0 C3.09698661,0 2.85714286,0.251835937 2.85714286,0.5625 L2.85714286,9.1875 C2.85714286,9.49816406 3.09698661,9.75 3.39285714,9.75 L9.46428571,9.75 C9.76015625,9.75 10,9.49816406 10,9.1875 L10,3 L7.67857143,3 C7.38392857,3 7.14285714,2.746875 7.14285714,2.4375 Z M9.84310268,1.71025781 L8.37118304,0.164742187 C8.2707186,0.0592599644 8.1344629,0 7.99238839,0 L7.85714286,0 L7.85714286,2.25 L10,2.25 L10,2.10799219 C10,1.95881395 9.94356194,1.81574547 9.84310268,1.71025781 L9.84310268,1.71025781 Z" id="Shape"></path>
                </g>
            </g>
        </g>
    </g>
</svg>