<?xml version="1.0" encoding="UTF-8"?>
<svg width="402px" height="219px" viewBox="0 0 402 219" version="1.1" xmlns="http://www.w3.org/2000/svg" xmlns:xlink="http://www.w3.org/1999/xlink">
    <title>illustration</title>
    <g id="Visual-Design" stroke="none" stroke-width="1" fill="none" fill-rule="evenodd">
        <g id="03-COAdmin---home----groups---GROUP" transform="translate(-1506.000000, -1013.000000)" fill-rule="nonzero">
            <g id="content" transform="translate(399.000000, 516.000000)">
                <g id="illustration" transform="translate(1107.000000, 497.000000)">
                    <path d="M90.9906236,190.954474 C90.9135049,199.697669 90.2695569,208.426818 89.0627881,217.087584 C89.020566,217.391736 88.9745701,217.695873 88.9321693,218 L6.60369939,217.542497 C6.36197438,217.240437 6.12404875,216.934751 5.8935278,216.625408 C5.12489997,215.601654 4.4045099,214.548802 3.74319398,213.459632 C0.564608382,208.212465 -0.890577721,202.069078 0.567662181,197.830475 L0.593777776,197.764613 C0.908556433,196.83646 1.40457753,195.979287 2.05336074,195.242312 C5.37812014,191.520187 12.100445,192.140656 18.2008162,195.145011 C12.7291904,189.188333 8.37234414,181.671935 8.04130318,174.962662 C7.71671707,168.418498 11.1573778,163.74354 14.8891912,159.770638 C15.0116445,159.639303 15.1340722,159.511616 15.2564999,159.383949 C15.3159213,159.318274 15.3789276,159.256267 15.4381702,159.190587 C18.3497834,156.16295 21.7442235,153.178336 26.6574586,153.539372 C32.0459935,153.93603 38.0202756,158.424934 42.2091936,163.655712 C46.398132,168.882822 49.1817767,174.820886 52.0033079,180.616158 C54.8284648,186.407778 57.8850517,192.34738 62.4185332,197.297688 C56.2782532,189.573351 51.3275503,180.784776 49.4987692,172.237243 C47.6699881,163.68971 49.2794472,155.480352 54.7518849,151.454787 C56.4132645,150.270339 58.3357211,149.498865 60.3583834,149.20492 C60.5944655,149.1659 60.8342807,149.134218 61.0778645,149.106228 C66.1438049,148.532968 72.1923943,150.275507 77.3386578,154.440751 C83.0061352,159.026987 86.9354395,165.825896 88.8904936,172.280123 C90.8453945,178.734412 91.0537269,184.947882 90.9906236,190.954474 Z" id="Path" fill="#F2F2F2"></path>
                    <path d="M37,218 L35.4306268,217.991216 C34.9323201,217.679231 34.4316596,217.370914 33.9286456,217.066266 C33.6172573,216.869445 33.3022443,216.679955 32.9870685,216.486774 C27.7814347,213.303085 22.5432504,210.249275 17.2725156,207.325343 C12.0065797,204.398988 6.71416324,201.607456 1.39526618,198.950748 C1.10434349,198.82392 0.945311985,198.50719 1.0171631,198.197711 C1.02286071,198.178068 1.03169173,198.159476 1.04331449,198.142655 C1.11750255,198.003194 1.28331464,197.945212 1.52531039,198.064357 C2.17771027,198.391932 2.83387733,198.719527 3.4862314,199.054473 C8.81965078,201.756647 14.130182,204.593683 19.417825,207.565582 C24.7018196,210.536206 29.9557107,213.637951 35.1794982,216.870817 C35.2893269,216.937685 35.3993185,217.008243 35.5091472,217.075111 C36.0072961,217.383421 36.5018765,217.691711 37,218 Z" id="Path" fill="#FFFFFF"></path>
                    <path d="M57,218 L56.0162503,217.99454 C55.7943457,217.686048 55.5763166,217.377551 55.3544378,217.069039 C50.1414059,209.806131 44.929468,202.54322 39.7186242,195.280305 C31.185259,183.38979 22.6544466,171.499294 14.1261869,159.608817 C14.0756329,159.544816 14.0380434,159.471687 14.0154978,159.393476 C13.9425634,159.130211 14.1372047,158.975806 14.3866823,159.003108 C14.5994556,159.033308 14.788841,159.153062 14.9064707,159.331786 C19.6907244,165.999983 24.4737791,172.665702 29.2556348,179.328942 C37.7445709,191.159982 46.2323011,202.989772 54.7188255,214.818313 C55.2586214,215.569152 55.7984174,216.323651 56.3382133,217.074505 C56.5600663,217.383017 56.7819452,217.691529 57,218 Z" id="Path" fill="#FFFFFF"></path>
                    <path d="M78.9684826,212.259703 C78.9182443,213.891224 78.8084359,215.496749 78.6650233,217.087404 C78.63726,217.391616 78.6094348,217.695815 78.5815475,218 L77.5486516,217.994327 C77.5802416,217.690159 77.6118317,217.385965 77.6395949,217.081731 C77.8578537,214.783735 78.0127155,212.459758 78.0337445,210.072681 C78.0612133,203.454592 77.4053482,196.850858 76.0762377,190.363058 C74.663454,183.377453 72.6349178,176.526059 70.0136039,169.886473 C67.2623688,162.883783 63.945315,156.108986 60.0942459,149.627037 C60.021695,149.521391 59.9894036,149.393949 60.0030651,149.267179 C60.0456757,148.977707 60.4376305,148.891882 60.7306631,149.168494 C60.7885375,149.222767 60.8383805,149.284758 60.8787339,149.352654 C61.3552093,150.158339 61.8229881,150.966421 62.2820701,151.7769 C65.9911303,158.294823 69.1658515,165.093167 71.7760603,172.107317 C74.2622837,178.768664 76.1534565,185.630401 77.4281169,192.614657 C78.6220672,199.094142 79.1382141,205.676818 78.9684826,212.259703 L78.9684826,212.259703 Z" id="Path" fill="#FFFFFF"></path>
                    <path d="M364,170.06422 C364,166.162752 349.225357,163 331,163 C312.774643,163 298,166.162752 298,170.06422 C298,172.564672 304.074208,174.760014 313.230769,176.015478 L313.230769,214.720183 C313.230769,216.531576 314.70823,218 316.530769,218 C318.353309,218 319.830769,216.531576 319.830769,214.720183 L319.830769,176.712661 C323.319666,176.981308 327.079016,177.12844 331,177.12844 C334.920984,177.12844 338.680334,176.981288 342.169231,176.712661 L342.169231,214.720183 C342.169231,216.531576 343.646691,218 345.469231,218 C347.29177,218 348.769231,216.531576 348.769231,214.720183 L348.769231,176.015478 C357.925786,174.760014 364,172.564692 364,170.06422 Z" id="Path" fill="#CCCCCC"></path>
                    <circle id="Oval" fill="#2F2E41" cx="335.5" cy="89.5" r="14.5"></circle>
                    <polygon id="Path" fill="#A0616A" points="298.998895 212 292.223168 212 289 188 299 188"></polygon>
                    <path d="M288.340903,211 L300,211 L300,218 L281,218 L281,218 C281,216.143485 281.773412,214.363008 283.150099,213.050253 C284.526785,211.737498 286.393973,211 288.340903,211 Z" id="Path" fill="#2F2E41"></path>
                    <polygon id="Path" fill="#A0616A" points="289.881575 209 284 207.111327 288.319926 183 297 185.786964"></polygon>
                    <path d="M278.203109,204.400612 L290.265348,204.401455 L290.265879,211.997717 L270.608887,211.996343 L270.608887,211.996343 C270.608887,209.981686 271.408769,208.0496 272.832963,206.625123 C274.257157,205.200647 276.188856,204.400466 278.203109,204.400612 Z" id="Path" fill="#2F2E41" transform="translate(280.437383, 208.199165) rotate(17.422620) translate(-280.437383, -208.199165) "></path>
                    <path d="M291.881046,199 C291.607545,199 291.336291,198.950969 291.080329,198.855294 L286.486243,197.145038 C285.420295,196.744482 284.810541,195.629303 285.052897,194.523593 C286.209532,189.360202 290.151491,171.781057 292.309939,162.352164 C294.869933,151.168073 332.214796,149.089881 333.803197,149.006913 L333.933767,149 L338.134763,154.241398 C339.652779,159.085736 339.171646,162.864306 336.704667,165.472405 C329.506196,173.081898 308.013619,168.36006 305.450768,167.762462 L294.027183,197.534715 C293.6864,198.417226 292.833003,199 291.881046,199 Z" id="Path" fill="#2F2E41"></path>
                    <path d="M297.881046,202 C297.607545,202 297.336291,201.950969 297.080329,201.855294 L292.486243,200.145038 C291.420295,199.744482 290.810541,198.629303 291.052897,197.523593 C292.209532,192.360202 296.151491,174.781057 298.309939,165.352164 C300.869933,154.168073 338.214796,152.089881 339.803197,152.006913 L339.933767,152 L344.134763,157.241398 C345.652779,162.085736 345.171646,165.864306 342.704667,168.472405 C335.506196,176.081402 314.013747,171.36006 311.450768,170.762462 L300.027183,200.534715 C299.6864,201.417226 298.833003,202 297.881046,202 L297.881046,202 Z" id="Path" fill="#2F2E41"></path>
                    <path d="M284.608018,129.112454 C284.776822,129.337799 284.927559,129.576077 285.058829,129.825073 L310.185488,132.467159 L313.80244,127.517789 L322,131.989454 L314.895836,144 L284.079979,136.158233 C282.488128,137.707134 280.102082,138.111415 278.087241,137.173616 C276.0724,136.235817 274.849158,134.151608 275.014975,131.938965 C275.180792,129.726323 276.70107,127.846911 278.83327,127.218678 C280.96547,126.590446 283.264713,127.344473 284.607993,129.112474 L284.608018,129.112454 Z" id="Path" fill="#A0616A"></path>
                    <path d="M342.76614,160 C342.405427,159.998853 342.050148,159.910881 341.729589,159.743335 C336.741795,157.17431 327.029448,152.725162 318.023113,151.794104 C317.399847,151.732165 316.831349,151.406598 316.457605,150.897571 C316.076584,150.383376 315.923834,149.731826 316.035946,149.099001 C316.848645,144.541787 318.712952,132.937383 318.4728,123.636846 C318.327083,117.746765 322.23016,112.540727 327.870525,111.101886 L327.870525,111.101886 C329.519122,110.661345 331.193601,110.326985 332.883914,110.100811 C336.823562,109.595318 340.766743,111.009946 343.51418,113.914451 C346.261617,116.818957 347.488566,120.870032 346.821864,124.835583 C345.215734,134.473822 343.596637,147.935336 345.003853,157.332428 C345.135615,158.191198 344.780168,159.05217 344.084108,159.560253 C343.701816,159.844466 343.240341,159.99844 342.76614,160 Z" id="Path" fill="#EA7600"></path>
                    <path d="M319.113345,135 C318.790348,134.999507 318.47088,134.932575 318.174683,134.803318 L311.424602,131.871451 C310.227715,131.349727 309.677347,129.95451 310.194153,128.752186 L315.412077,116.657644 C316.268642,114.668692 318.117994,113.289652 320.263021,113.040352 C322.408048,112.791052 324.522602,113.709399 325.809601,115.449221 C327.0966,117.189043 327.360358,119.485803 326.501452,121.473738 L321.283632,133.568301 C320.908463,134.436247 320.056204,134.998467 319.113345,135 L319.113345,135 Z" id="Path" fill="#EA7600"></path>
                    <circle id="Oval" fill="#A0616A" cx="334.5" cy="93.5" r="12.5"></circle>
                    <path d="M320,87.1715725 C326.141547,91.0116336 333.065344,93.3483909 340.232588,94 L338.099899,91.3825886 C339.652753,91.9706685 341.286772,92.3030158 342.94118,92.3672689 C344.593628,92.3409089 346.324978,91.6892083 347.262828,90.2953936 C348.111846,88.8890592 348.235147,87.1461489 347.592937,85.629136 C346.942976,84.138385 345.931382,82.8427952 344.654422,81.8656561 C340.057072,78.1406786 333.943885,77.0216229 328.371467,78.8849632 C326.489542,79.4610482 324.804098,80.5684445 323.50821,82.0802942 C322.27904,83.6334478 319.912648,85.017243 320.542016,86.9098109 L320,87.1715725 Z" id="Path" fill="#2F2E41"></path>
                    <path d="M336,76.6166882 C332.09043,72.6213412 327.359326,69.5381992 322.139779,67.5843275 C318.789302,66.3334621 315.142499,65.5606264 311.639718,66.2709854 C308.136938,66.9813445 304.824368,69.4233399 303.847143,72.8867655 C303.048062,75.7188433 303.873175,78.7681347 305.113256,81.4340981 C306.353338,84.1000615 308.008939,86.5722374 309.011777,89.3376985 C311.090686,95.0705963 310.151876,101.474087 306.51671,106.356203 C302.881543,111.238319 297.043127,113.936806 291,113.527949 C294.441653,113.993004 297.614005,115.622905 300.978047,116.490467 C304.342089,117.35803 308.312569,117.2992 310.812501,114.870479 C313.457526,112.300799 313.510482,108.122763 313.3826,104.422532 C313.192501,98.9220108 313.002402,93.4214826 312.812303,87.9209476 C312.715353,85.1157901 312.632559,82.220722 313.636397,79.6025061 C314.640234,76.9842903 317.025961,74.691605 319.811117,74.7154279 C321.921986,74.7334833 323.790287,76.022153 325.483124,77.2930217 C327.17596,78.5638904 328.96771,79.9198177 331.070307,80.1088497 C333.172904,80.2978817 335.573595,78.7298014 335.416259,76.608398" id="Path" fill="#2F2E41"></path>
                    <path d="M312.641946,157 C310.357021,156.997356 308.298734,155.584248 307.427187,153.419831 C306.555641,151.255414 307.042544,148.766112 308.660778,147.113079 C310.279011,145.460045 312.709756,144.968954 314.819174,145.868878 L314.819298,145.868878 C315.051331,145.96923 315.276262,146.08602 315.492457,146.218403 L338.456192,135.653558 L339.101275,129.271452 L349,129 L348.934467,139.625199 C348.909481,142.152596 347.269369,144.363846 344.899664,145.065048 L318.044742,152.898158 C317.992528,153.080002 317.931,153.2589 317.860414,153.434108 C316.979466,155.590358 314.923127,156.995493 312.641956,157 L312.641946,157 Z" id="Path" fill="#A0616A"></path>
                    <path d="M347.795358,134.285901 C347.526916,134.433406 347.233467,134.519567 346.933147,134.539058 L340.0949,134.9956 C338.881595,135.074889 337.838033,134.07304 337.761825,132.755785 L337.011249,119.496344 C336.884244,117.315074 337.839785,115.226233 339.51722,114.018219 C341.194656,112.810206 343.338541,112.666979 345.139702,113.642597 C346.940863,114.618216 348.125016,116.564111 348.245221,118.745835 L348.995914,132.005222 C349.049194,132.957098 348.577738,133.852716 347.795348,134.285917 L347.795358,134.285901 Z" id="Path" fill="#EA7600"></path>
                    <path d="M292.790698,154 L333.209302,154 C334.198277,154 335,154.895431 335,156 L335,156 C335,157.104569 334.198277,158 333.209302,158 L292.790698,158 C291.801723,158 291,157.104569 291,156 L291,156 C291,154.895431 291.801723,154 292.790698,154 L292.790698,154 Z" id="Path" fill="#3F3D56" transform="translate(313.000000, 156.000000) rotate(180.000000) translate(-313.000000, -156.000000) "></path>
                    <path d="M275,154.75 L275,130.25 C275.002031,128.455916 276.455916,127.002031 278.25,127 L322.75,127 C324.544084,127.002031 325.997969,128.455916 326,130.25 L326,154.75 C325.997972,156.544085 324.544085,157.997972 322.75,158 L278.25,158 C276.455915,157.997972 275.002028,156.544085 275,154.75 L275,154.75 Z" id="Path" fill="#3F3D56"></path>
                    <circle id="Oval" fill="#FFFFFF" cx="301" cy="142" r="3"></circle>
                    <path d="M141.123203,112.101486 C140.282657,110.855224 138.921663,110.03762 137.406441,109.868676 C135.891218,109.699733 134.377416,110.196804 133.27237,111.226138 L117,103 L118.011565,112.267263 L133.308994,118.65817 C135.239983,120.400003 138.195962,120.452008 140.189575,118.779221 C142.183188,117.106433 142.584281,114.237599 141.123193,112.101486 L141.123203,112.101486 Z" id="Path" fill="#FFB8B8"></path>
                    <path d="M126.343341,115.788302 C125.743424,116.063353 125.054833,116.070695 124.449181,115.808498 L108.877419,109.057244 C103.55307,106.749651 99.2486141,102.58768 96.7647479,97.3455203 L88.578318,80.0747379 C86.9346195,77.964196 86.5434642,75.1371131 87.5524072,72.6599464 C88.5613502,70.1827797 90.8168474,68.4325116 93.4680605,68.0693938 C96.1192735,67.7062761 98.7627328,68.7855689 100.401249,70.9001319 L114.791022,97.5838097 L128.078104,107.615449 C128.857119,108.206328 129.184237,109.220416 128.897229,110.154796 L127.593086,114.364876 C127.45302,114.816319 127.17861,115.214371 126.806433,115.505973 C126.663754,115.618012 126.508308,115.712781 126.343341,115.788302 L126.343341,115.788302 Z" id="Path" fill="#CCCCCC"></path>
                    <circle id="Oval" fill="#FFB8B8" cx="89.5" cy="48.5" r="12.5"></circle>
                    <polygon id="Path" fill="#FFB8B8" points="94.0016579 213 100.776458 213 104 189 94 189"></polygon>
                    <path d="M92.8648959,210.930872 L112.521436,210.930872 L112.521436,218.527301 L100.459461,218.527301 C96.2650987,218.527301 92.8648959,215.126266 92.8648959,210.930872 L92.8648959,210.930872 L92.8648959,210.930872 Z" id="Path" fill="#2F2E41" transform="translate(102.693166, 214.729086) rotate(179.997380) translate(-102.693166, -214.729086) "></path>
                    <polygon id="Path" fill="#FFB8B8" points="74.0016579 213 80.7764576 213 84 189 74 189"></polygon>
                    <path d="M72.4588045,210.930872 L92.1153445,210.930872 L92.1153445,218.527301 L80.0533701,218.527301 C75.8590073,218.527301 72.4588045,215.126267 72.4588045,210.930872 L72.4588045,210.930872 L72.4588045,210.930872 Z" id="Path" fill="#2F2E41" transform="translate(82.287074, 214.729087) rotate(179.997380) translate(-82.287074, -214.729087) "></path>
                    <path d="M72.5674648,206.213807 C72.1323284,205.714419 71.9328134,205.050541 72.0201133,204.392516 L82.949119,122 L110.102138,126.6352 L113,124.887399 L105.506386,203.062032 C105.377883,204.149921 104.506671,204.997356 103.420753,205.090746 L95.1989171,205.779477 C94.5375328,205.835038 93.8846836,205.599545 93.4093546,205.133954 C92.9340255,204.668363 92.682942,204.018442 92.721095,203.352418 L94.8497374,166.122868 C94.8575015,165.991861 94.7654214,165.876181 94.6365604,165.855055 C94.5076994,165.83393 94.3838242,165.914205 94.3497738,166.040903 L83.8186748,205.296162 C83.547978,206.300619 82.641795,206.99857 81.6064989,207 L74.2913369,207 C73.6308161,207 73.002431,206.713465 72.5674648,206.213807 L72.5674648,206.213807 Z" id="Path" fill="#2F2E41"></path>
                    <path d="M90.8047842,127.627685 C90.160821,127.042229 89.1924185,127.00165 88.5021074,127.531196 L83.0658267,131.776671 C82.4651053,132.247121 81.6708555,132.387204 80.9464066,132.150478 C80.2219576,131.913751 79.6619679,131.331146 79.452099,130.595821 C76.7855612,121.219517 70.7441695,97.6180111 72.2324855,81.006646 C73.0761033,71.5908459 81.1743176,64.4347614 90.284808,65.035184 C96.5132901,65.4521292 100.61091,69.0596717 102.463816,75.7573187 C107.013282,92.2017214 112.013002,122.365872 112.969029,128.246123 C113.1235,129.179859 112.690809,130.112964 111.879679,130.595325 C109.307549,132.145697 106.368756,132.976029 103.368808,133 C99.7389018,133 95.3864897,131.731144 90.8047842,127.627685 Z" id="Path" fill="#CCCCCC"></path>
                    <path d="M91.9832424,132.382634 C92.1050185,130.918568 91.5585879,129.476857 90.4909842,128.445435 C89.4233806,127.414013 87.9442711,126.898832 86.4516548,127.038517 L78.9585876,111 L74,118.772813 L81.8757559,132.811609 C82.2905963,135.307357 84.5453018,137.104703 87.1239943,136.99526 C89.7026869,136.885817 91.7902796,134.904178 91.9832475,132.382634 L91.9832424,132.382634 Z" id="Path" fill="#FFB8B8"></path>
                    <path d="M78.9852773,127.936388 C78.3687682,127.782558 77.8440059,127.362972 77.5417749,126.782203 L69.7770974,111.842396 C67.1216885,106.734778 66.3367854,100.795793 67.5683921,95.1301808 L71.6237197,76.4623868 C71.6337308,73.7841623 73.0148183,71.3152306 75.24614,69.9866866 C77.4774617,68.6581425 80.2195605,68.6721011 82.4383236,70.0232984 C84.6570866,71.3744956 86.0149673,73.85737 86,76.5355686 L81.0505269,106.453531 L85.1431477,122.567208 C85.381479,123.514095 85.0273049,124.515349 84.256272,125.074417 L80.7739094,127.586675 C80.40033,127.855923 79.9568825,128 79.5026769,128 C79.3284066,128 79.1547325,127.978788 78.9852773,127.936388 Z" id="Path" fill="#CCCCCC"></path>
                    <polygon id="Path" fill="#000000" opacity="0.2" points="84.8461538 89 80 108.542857 87 125 82.1538462 109.057143"></polygon>
                    <path d="M82.5225306,58.9984961 C81.3970788,59.0199131 80.2786452,58.8123989 79.2318563,58.3879443 C78.7712701,58.2059172 78.2931487,58.0562996 77.8334176,57.8741563 C73.773288,56.2655168 71.0987291,51.8312018 71.00294,47.3686506 C70.9071509,42.9060995 73.1606652,38.5747767 76.5069534,35.7203315 C79.8532415,32.8658863 84.1875253,31.4003983 88.5275734,31.0614899 C93.2025254,30.6964531 98.4666771,31.9122369 101.078987,35.9048362 C101.774341,36.9676005 102.260647,38.2570151 101.848597,39.5402013 C101.725186,39.9274244 101.504777,40.2746215 101.209424,40.5470531 C100.042801,41.611455 98.8797371,40.8111316 97.6904633,40.7404011 C96.0558203,40.6431988 94.587617,42.0001056 94.0599243,43.5896692 C93.5322316,45.1792328 93.7645209,46.9292066 94.1905983,48.5505141 C94.5151865,49.5261156 94.7198137,50.5394358 94.7997388,51.5669965 C94.8696624,52.6146012 94.4061476,53.6247498 93.5744623,54.2372698 C92.5530139,54.8704475 91.2115799,54.5039897 90.1895185,53.8718315 C89.1674571,53.2396733 88.2843427,52.3607218 87.1803442,51.8955349 C86.0763456,51.4303481 84.5931159,51.5335357 83.950538,52.5650103 C83.7463267,52.9403307 83.6081105,53.3495747 83.5422121,53.7740217 C82.9661484,56.4654946 83.098548,56.3069862 82.5224843,58.9984591 L82.5225306,58.9984961 Z" id="Path" fill="#2F2E41"></path>
                    <path d="M190.462403,101.16184 C190.052344,100.623262 189.904418,99.9184256 190.061481,99.2515303 C191.913459,91.1970158 191.913408,82.8029599 190.061333,74.7484697 C189.904395,74.0815495 190.052369,73.3767493 190.462403,72.8381598 C190.863696,72.3071253 191.478403,71.9978871 192.128484,72 L211.927403,72 C212.972217,72.0020452 213.862294,72.7885006 214.031374,73.859041 C215.322875,82.5683652 215.322875,91.4316348 214.031374,100.140959 C213.862294,101.211499 212.972217,101.997955 211.927403,102 L192.128484,102 C191.478403,102.002113 190.863696,101.692875 190.462403,101.16184 L190.462403,101.16184 Z" id="Path" fill="#E6E6E6"></path>
                    <path d="M159.462227,29.1615256 C159.052214,28.6230457 158.90434,27.9183012 159.061458,27.2515306 C160.913412,19.1970207 160.913412,10.8029845 159.061458,2.74847447 C158.90434,2.08170225 159.052215,1.37695651 159.462227,0.838474364 C159.863403,0.307247296 160.478158,-0.00213035446 161.128314,0 L180.9274,0 C181.972163,0.00219744178 182.86216,0.788583243 183.031373,1.85904599 C184.322876,10.5683669 184.322876,19.4316331 183.031373,28.140954 C182.86216,29.2114167 181.972163,29.9978025 180.9274,30 L161.128318,30 C160.478161,30.0021342 159.863402,29.692756 159.462227,29.1615256 Z" id="Path" fill="#E6E6E6"></path>
                    <path d="M208.968633,53.140954 C207.677122,44.4316335 207.677122,35.5683665 208.968633,26.859046 C209.137643,25.7885286 210.027673,25.0020577 211.072457,25 L230.871593,25 C231.521751,24.9978681 232.136509,25.3072461 232.537685,25.8384744 C232.947704,26.3769525 233.095631,27.081677 232.938608,27.7484745 C231.086526,35.8029632 231.086475,44.1970176 232.938459,52.2515306 C233.095611,52.9183016 232.947731,53.6230619 232.537685,54.1615256 C232.13651,54.6927558 231.521751,55.0021342 230.871593,55 L211.072457,55 C210.027673,54.9979423 209.137643,54.2114714 208.968633,53.140954 L208.968633,53.140954 Z" id="Path" fill="#EA7600"></path>
                    <path d="M123.968516,52.1409588 C122.677161,43.4316229 122.677161,34.5683771 123.968516,25.8590412 C124.13773,24.7885792 125.027728,24.0021949 126.072491,24 L145.8716,24 C146.521756,23.9978676 147.136512,24.3072435 147.537689,24.8384694 C147.947706,25.3769485 148.095631,26.081673 147.938607,26.7484698 C146.086527,34.8029599 146.086476,43.1970158 147.938458,51.2515302 C148.095609,51.9183021 147.947731,52.623063 147.537689,53.1615306 C147.136512,53.6927565 146.521756,54.0021324 145.8716,54 L126.072491,54 C125.027728,53.9978051 124.13773,53.2114208 123.968516,52.1409588 L123.968516,52.1409588 Z" id="Path" fill="#FF6584"></path>
                    <path d="M128.480893,113.161808 C128.054436,112.623234 127.900594,111.918404 128.063936,111.251514 C129.99015,103.197019 129.990096,94.8029263 128.063779,86.7484555 C127.900574,86.0815379 128.054472,85.3767447 128.480908,84.8381613 C128.898255,84.3071273 129.53755,83.9978888 130.213636,84 L150.8045,84 C151.891107,84.0020473 152.816786,84.7885061 152.992625,85.8590477 C154.335792,94.5683687 154.335792,103.431636 152.992625,112.140957 C152.816783,113.211497 151.891106,113.997953 150.8045,114 L130.21362,114 C129.53753,114.002104 128.898233,113.692854 128.480893,113.161808 Z" id="Path" fill="#EA7600"></path>
                    <path d="M6.60963336,219 L401.392131,219 C401.727848,219 402,218.776141 402,218.5 C402,218.223859 401.727848,218 401.392131,218 L6.60963336,218 C6.39204299,217.999483 6.19071085,218.094669 6.08173322,218.249582 C5.97275559,218.404495 5.97275559,218.595505 6.08173322,218.750418 C6.19071085,218.905331 6.39204299,219.000517 6.60963336,219 Z" id="Path" fill="#3F3D56"></path>
                    <path d="M147.464321,95 L136.535684,95 C135.687933,94.9990059 135.000925,94.2609799 135,93.3502728 L135,92.6497272 C135.000925,91.7390201 135.687933,91.0009941 136.535684,91 L147.464316,91 C148.312067,91.0009941 148.999075,91.7390201 149,92.6497272 L149,93.3502673 C148.999077,94.2609744 148.312072,94.9990029 147.464321,95 Z" id="Path" fill="#FFFFFF"></path>
                    <path d="M147.464321,101 L136.535684,101 C135.687933,100.999006 135.000925,100.260979 135,99.3502706 L135,98.6497294 C135.000925,97.7390211 135.687933,97.0009941 136.535684,97 L147.464316,97 C148.312067,97.0009941 148.999075,97.7390211 149,98.6497294 L149,99.3502706 C148.999075,100.260977 148.31207,100.999003 147.464321,101 L147.464321,101 Z" id="Path" fill="#FFFFFF"></path>
                    <path d="M139.551457,37 L129.448543,37 C128.648897,36.9989918 128.000873,36.2504643 128,35.3267986 L128,34.6732014 C128.000873,33.7495357 128.648897,33.0010082 129.448543,33 L139.551457,33 C140.351103,33.0010082 140.999127,33.7495357 141,34.6732014 L141,35.3267986 C140.999127,36.2504643 140.351103,36.9989918 139.551457,37 Z" id="Path" fill="#FFFFFF"></path>
                    <path d="M207.551443,83 L197.448557,83 C196.648903,82.9989918 196.000873,82.2505144 196,81.3269105 L196,80.6730895 C196.000873,79.7494856 196.648903,79.0010082 197.448557,79 L207.551443,79 C208.351097,79.0010082 208.999127,79.7494856 209,80.6730895 L209,81.3269105 C208.999127,82.2505144 208.351097,82.9989918 207.551443,83 L207.551443,83 Z" id="Path" fill="#FFFFFF"></path>
                    <path d="M207.551443,90 L197.448557,90 C196.648903,89.9989918 196.000873,89.2505155 196,88.3269129 L196,87.6730871 C196.000873,86.7494845 196.648903,86.0010082 197.448557,86 L207.551443,86 C208.351096,86.0010112 208.999124,86.7494858 209,87.6730871 L209,88.3269129 C208.999124,89.2505142 208.351096,89.9989888 207.551443,90 L207.551443,90 Z" id="Path" fill="#FFFFFF"></path>
                    <path d="M207.551443,97 L197.448557,97 C196.648903,96.9989918 196.000873,96.2505144 196,95.3269105 L196,94.6730895 C196.000873,93.7494856 196.648903,93.0010082 197.448557,93 L207.551443,93 C208.351097,93.0010082 208.999127,93.7494856 209,94.6730895 L209,95.3269105 C208.999127,96.2505144 208.351097,96.9989918 207.551443,97 L207.551443,97 Z" id="Path" fill="#FFFFFF"></path>
                    <path d="M139.551457,43 L129.448543,43 C128.648897,42.9989918 128.000873,42.2505144 128,41.3269105 L128,40.6730895 C128.000873,39.7494856 128.648897,39.0010082 129.448543,39 L139.551457,39 C140.351103,39.0010082 140.999127,39.7494856 141,40.6730895 L141,41.3269105 C140.999127,42.2505144 140.351103,42.9989918 139.551457,43 L139.551457,43 Z" id="Path" fill="#FFFFFF"></path>
                    <path d="M176.551444,12 L166.448556,12 C165.648903,11.9989918 165.000873,11.2505144 165,10.3269105 L165,9.67308947 C165.000873,8.74948558 165.648903,8.00100815 166.448556,8 L176.551444,8 C177.351097,8.00100815 177.999127,8.74948558 178,9.67308947 L178,10.3269105 C177.999127,11.2505144 177.351097,11.9989918 176.551444,12 Z" id="Path" fill="#FFFFFF"></path>
                    <path d="M225.551456,39 L215.448544,39 C214.648897,38.9989918 214.000873,38.2505144 214,37.3269105 L214,36.6730895 C214.000873,35.7494856 214.648897,35.0010082 215.448544,35 L225.551456,35 C226.351103,35.0010082 226.999127,35.7494856 227,36.6730895 L227,37.3269105 C226.999127,38.2505144 226.351103,38.9989918 225.551456,39 Z" id="Path" fill="#FFFFFF"></path>
                </g>
            </g>
        </g>
    </g>
</svg>