<?xml version="1.0" encoding="UTF-8"?>
<svg width="434px" height="327px" viewBox="0 0 434 327" version="1.1" xmlns="http://www.w3.org/2000/svg" xmlns:xlink="http://www.w3.org/1999/xlink">
    <g id="Visual-Design" stroke="none" stroke-width="1" fill="none" fill-rule="evenodd">
        <g id="00-Member---home-VD" transform="translate(-1418.000000, -739.000000)">
            <g id="illustration" transform="translate(1419.000000, 740.000000)">
                <g id="Group-2" transform="translate(46.000000, 34.000000)" fill-rule="nonzero">
                    <path d="M178.826253,63.030837 L83.0437466,63.030837 C82.06461,63.0296996 81.2711497,62.244777 81.27,61.276176 L81.27,37.7722822 C81.2711497,36.8036811 82.06461,36.0187585 83.0437466,36.0176211 L178.826253,36.0176211 C179.80539,36.0187585 180.59885,36.8036811 180.6,37.7722822 L180.6,61.276176 C180.59885,62.244777 179.80539,63.0296996 178.826253,63.030837 L178.826253,63.030837 Z M83.0437466,36.719476 C82.4562448,36.7201116 81.9795011,37.1910939 81.9795011,37.7722742 L81.9795011,61.276168 C81.9795011,61.8573467 82.4562464,62.3283266 83.0437466,62.3289623 L178.826253,62.3289623 C179.413754,62.3283266 179.890499,61.8573467 179.890499,61.276168 L179.890499,37.7722822 C179.890499,37.1911019 179.413755,36.7201196 178.826253,36.719476 L83.0437466,36.719476 Z" id="Shape" fill="#3F3D56"></path>
                    <ellipse id="Oval" fill="#EA7600" cx="98.685" cy="49.5242291" rx="7.095" ry="7.07488987"></ellipse>
                    <path d="M114.727501,43.7356828 C114.060616,43.7356828 113.52,44.3115985 113.52,45.0220264 C113.52,45.7324544 114.060616,46.30837 114.727501,46.30837 L171.652499,46.30837 C172.319384,46.30837 172.86,45.7324544 172.86,45.0220264 C172.86,44.3115985 172.319384,43.7356828 171.652499,43.7356828 L114.727501,43.7356828 Z" id="Path" fill="#E6E6E6"></path>
                    <path d="M114.735476,50.1674009 C114.064187,50.1674009 113.52,50.7433177 113.52,51.4537445 C113.52,52.1641713 114.064187,52.7400881 114.735476,52.7400881 L139.392301,52.7400881 C139.827078,52.7409267 140.229168,52.4959354 140.446786,52.0975947 C140.664405,51.6992539 140.664405,51.2082351 140.446786,50.8098943 C140.229168,50.4115536 139.827078,50.1665623 139.392301,50.1674009 L114.735476,50.1674009 Z" id="Path" fill="#E6E6E6"></path>
                    <path d="M137.583468,146.643172 L95.9065316,146.643172 C94.9479383,146.642029 94.1711256,145.853338 94.17,144.880086 L94.17,100.811544 C94.1711256,99.8382923 94.9479383,99.049601 95.9065316,99.0484581 L137.583468,99.0484581 C138.542062,99.049601 139.318874,99.8382923 139.32,100.811544 L139.32,144.880086 C139.318874,145.853338 138.542062,146.642029 137.583468,146.643172 Z M95.9065316,99.7536949 C95.3313562,99.7543313 94.8652401,100.227573 94.8646111,100.811544 L94.8646111,144.880086 C94.865238,145.464058 95.3313547,145.937303 95.9065316,145.937939 L137.583468,145.937939 C138.158645,145.937303 138.624762,145.464058 138.625389,144.880086 L138.625389,100.811544 C138.62476,100.227573 138.158644,99.7543313 137.583468,99.7536949 L95.9065316,99.7536949 Z" id="Shape" fill="#3F3D56"></path>
                    <path d="M104.415578,108.052863 C103.744233,108.052863 103.2,108.628779 103.2,109.339207 C103.2,110.049635 103.744233,110.625551 104.415578,110.625551 L129.074422,110.625551 C129.745767,110.625551 130.29,110.049635 130.29,109.339207 C130.29,108.628779 129.745767,108.052863 129.074422,108.052863 L104.415578,108.052863 Z" id="Path" fill="#E6E6E6"></path>
                    <path d="M104.417699,115.770925 C103.982922,115.770087 103.580832,116.015078 103.363214,116.413419 C103.145595,116.811759 103.145595,117.302778 103.363214,117.701119 C103.580832,118.09946 103.982922,118.344451 104.417699,118.343612 L129.074524,118.343612 C129.745813,118.343612 130.29,117.767695 130.29,117.057269 C130.29,116.346842 129.745813,115.770925 129.074524,115.770925 L104.417699,115.770925 Z" id="Path" fill="#E6E6E6"></path>
                    <path d="M116.100109,138.92511 C112.969616,138.92511 110.147372,137.044688 108.949387,134.160686 C107.751402,131.276684 108.413598,127.957056 110.627194,125.74974 C112.84079,123.542424 116.169855,122.882114 119.062052,124.076711 C121.954248,125.271309 123.84,128.085558 123.84,131.207178 C123.835159,135.467681 120.372723,138.920294 116.100109,138.92511 L116.100109,138.92511 Z" id="Path" fill="#EA7600"></path>
                    <path d="M206.846532,0 L248.523468,0 C249.482062,0.00114281541 250.258874,0.789834169 250.26,1.76308581 L250.26,45.8316278 C250.258874,46.8048795 249.482062,47.5935708 248.523468,47.5947137 L206.846532,47.5947137 C205.887938,47.5935708 205.111126,46.8048795 205.11,45.8316278 L205.11,1.76308581 C205.111126,0.789834169 205.887938,0.00114281541 206.846532,0 Z M248.523468,46.8894809 C249.098644,46.8888423 249.564758,46.4155986 249.565385,45.8316278 L249.565385,1.76308581 C249.564758,1.17911508 249.098644,0.705871397 248.523468,0.705232727 L206.846532,0.705232727 C206.271356,0.705871397 205.805242,1.17911508 205.804615,1.76308581 L205.804615,45.8316278 C205.805242,46.4155986 206.271356,46.8888423 206.846532,46.8894809 L248.523468,46.8894809 Z" id="Shape" fill="#3F3D56"></path>
                    <path d="M240.014422,38.5903084 C240.685767,38.5903084 241.23,38.0143927 241.23,37.3039648 C241.23,36.5935368 240.685767,36.0176211 240.014422,36.0176211 L215.355578,36.0176211 C214.684233,36.0176211 214.14,36.5935368 214.14,37.3039648 C214.14,38.0143927 214.684233,38.5903084 215.355578,38.5903084 L240.014422,38.5903084 Z" id="Path" fill="#E6E6E6"></path>
                    <path d="M240.014422,32.1585903 C240.685767,32.1585903 241.23,31.5826747 241.23,30.8722467 C241.23,30.1618187 240.685767,29.5859031 240.014422,29.5859031 L215.355578,29.5859031 C214.684233,29.5859031 214.14,30.1618187 214.14,30.8722467 C214.14,31.5826747 214.684233,32.1585903 215.355578,32.1585903 L240.014422,32.1585903 Z" id="Path" fill="#E6E6E6"></path>
                    <path d="M227.039883,10.2907489 C230.170376,10.2907489 232.992621,12.1711645 234.190609,15.0551647 C235.388598,17.9391649 234.726406,21.2587933 232.512813,23.4661118 C230.299221,25.6734302 226.970156,26.3337449 224.077959,25.139152 C221.185761,23.9445591 219.3,21.1303134 219.3,18.0086937 C219.304832,13.7481879 222.767267,10.2955672 227.039883,10.2907489 Z" id="Path" fill="#EA7600"></path>
                    <path d="M82.1467916,91.9908807 C89.6646101,86.2179296 98.4478602,82.2812424 107.785474,80.4995224 C117.197349,78.7213489 126.902666,79.2157948 136.081144,81.94107 C140.695032,83.3031685 145.128012,85.2076025 149.285606,87.6137828 C153.521876,90.0690956 157.349688,93.091632 161.032668,96.2918797 C164.763571,99.5337708 168.371843,102.919988 172.266624,105.972039 C183.386069,114.784398 197.190251,119.59903 211.42544,119.629956 C212.601445,119.631736 213.776624,119.599626 214.950977,119.53355 C215.587629,119.498796 215.591717,118.512267 214.950977,118.547243 C200.44053,119.339453 186.111311,115.046422 174.471558,106.419619 C170.434809,103.426829 166.748977,100.004891 162.986086,96.688906 C159.337923,93.474024 155.59208,90.3467328 151.453124,87.7638684 C130.756486,74.8362832 104.268309,75.4348908 84.1872544,89.284013 C83.253281,89.9278804 82.3409884,90.6007737 81.4433717,91.2934724 C80.9387464,91.6828971 81.6472816,92.3763793 82.1467956,91.9908966 L82.1467916,91.9908807 Z" id="Path" fill="#3F3D56"></path>
                    <ellipse id="Oval" fill="#3F3D56" cx="81.27" cy="91.3303965" rx="5.16" ry="5.14537445"></ellipse>
                    <ellipse id="Oval" fill="#3F3D56" cx="273.48" cy="160.792952" rx="5.16" ry="5.14537445"></ellipse>
                    <path d="M300.093355,129.920705 L215.906625,129.920705 C214.93142,129.919554 214.141145,129.124976 214.14,128.14446 L214.14,84.1022645 C214.14113,83.1217377 214.931409,82.3271426 215.906625,82.3259912 L300.093375,82.3259912 C301.06858,82.3271425 301.858855,83.1217205 301.86,84.1022363 L301.86,128.144432 C301.85887,129.124966 301.068579,129.919565 300.093355,129.920705 Z M215.906625,83.0365037 C215.321482,83.0371449 214.846648,83.513919 214.846648,84.1022484 L214.846648,128.144444 C214.846648,128.732774 215.321481,129.209549 215.906625,129.210192 L300.093375,129.210192 C300.678519,129.209549 301.153352,128.732774 301.153352,128.144444 L301.153352,84.1022484 C301.153352,83.513919 300.678518,83.0371449 300.093375,83.0365037 L215.906625,83.0365037 Z" id="Shape" fill="#3F3D56"></path>
                    <ellipse id="Oval" fill="#EA7600" cx="230.265" cy="98.4052863" rx="7.095" ry="7.07488987"></ellipse>
                    <path d="M246.301521,93.9030837 C245.872521,93.9022452 245.475772,94.1472364 245.261045,94.5455772 C245.046318,94.9439179 245.046318,95.4349367 245.261045,95.8332775 C245.475772,96.2316182 245.872521,96.4766095 246.301521,96.4757709 L291.630672,96.4757709 C292.293043,96.4757709 292.83,95.8998541 292.83,95.1894273 C292.83,94.4790005 292.293043,93.9030837 291.630672,93.9030837 L246.301521,93.9030837 Z" id="Path" fill="#E6E6E6"></path>
                    <path d="M246.317699,101.621145 C245.882922,101.620307 245.480832,101.865298 245.263214,102.263639 C245.045595,102.66198 245.045595,103.152998 245.263214,103.551339 C245.480832,103.94968 245.882922,104.194671 246.317699,104.193833 L270.974524,104.193833 C271.645813,104.193833 272.19,103.617916 272.19,102.907489 C272.19,102.197062 271.645813,101.621145 270.974524,101.621145 L246.317699,101.621145 Z" id="Path" fill="#E6E6E6"></path>
                    <path d="M224.81417,111.911894 C223.907677,111.911894 223.17,112.489023 223.17,113.198236 C223.17,113.907449 223.907677,114.484581 224.81417,114.484581 L291.18583,114.484581 C292.092323,114.484581 292.83,113.907449 292.83,113.198236 C292.83,112.489023 292.092323,111.911894 291.18583,111.911894 L224.81417,111.911894 Z" id="Path" fill="#E6E6E6"></path>
                    <path d="M224.81417,119.629956 C223.907677,119.629956 223.17,120.207109 223.17,120.9163 C223.17,121.62549 223.907677,122.202643 224.81417,122.202643 L291.18583,122.202643 C292.092323,122.202643 292.83,121.62549 292.83,120.9163 C292.83,120.207109 292.092323,119.629956 291.18583,119.629956 L224.81417,119.629956 Z" id="Path" fill="#E6E6E6"></path>
                    <path d="M209.733927,164.673667 C214.439856,162.605827 219.693957,164.408631 224.129544,166.314537 C226.413985,167.296126 228.673945,168.343851 231.038062,169.118935 C233.026918,169.769274 235.063728,170.258204 237.129192,170.581092 C241.274057,171.224157 245.489445,171.250286 249.641769,170.658652 C253.815153,170.069165 257.882396,168.871206 261.717127,167.101995 C265.530417,165.351319 269.055214,163.016992 272.167911,160.180875 C272.563933,159.818567 272.95224,159.44793 273.332832,159.068965 C273.785781,158.61945 273.089999,157.915061 272.637248,158.364384 C269.639855,161.32401 266.198939,163.784481 262.442184,165.654493 C258.700743,167.518102 254.710058,168.816707 250.597131,169.508979 C246.470728,170.213732 242.263283,170.287305 238.115324,169.727239 C236.04612,169.443831 234.002506,168.993816 232.003897,168.381469 C229.708318,167.62519 227.456356,166.739273 225.258589,165.727882 C220.781576,163.780299 215.807328,161.873187 210.887923,163.216349 C210.324116,163.374267 209.772479,163.573781 209.237433,163.813291 C208.658178,164.067823 209.158484,164.926535 209.733927,164.673679 L209.733927,164.673667 Z" id="Path" fill="#3F3D56"></path>
                    <path d="M207.69,177.515419 L168.99,177.515419 L178.09741,160.651165 C178.429612,160.035962 179.043596,159.656974 179.708058,159.656974 C180.372521,159.656974 180.986505,160.035962 181.318706,160.651165 L185.209269,167.855271 L191.824584,155.605943 C192.240512,154.835718 193.00922,154.361233 193.841125,154.361233 C194.673031,154.361233 195.441738,154.835718 195.857666,155.605943 L207.69,177.515419 Z" id="Path" fill="#EA7600"></path>
                    <path d="M207.243468,176.229075 L165.566532,176.229075 C164.607939,176.227938 163.831126,175.443015 163.83,174.474414 L163.83,150.97052 C163.831126,150.001919 164.607939,149.216996 165.566532,149.215859 L207.243468,149.215859 C208.202061,149.216996 208.978874,150.001919 208.98,150.97052 L208.98,174.474414 C208.978874,175.443015 208.202061,176.227938 207.243468,176.229075 Z M165.566532,149.917726 C164.991357,149.918363 164.52524,150.389344 164.524611,150.970524 L164.524611,174.474418 C164.525238,175.0556 164.991355,175.526583 165.566532,175.527216 L207.243468,175.527216 C207.818645,175.526583 208.284762,175.0556 208.285389,174.474418 L208.285389,150.97052 C208.28476,150.38934 207.818643,149.918359 207.243468,149.917726 L165.566532,149.917726 Z" id="Shape" fill="#3F3D56"></path>
                    <path d="M290.108322,154.913892 L282.596757,158.705478 C279.915699,160.058797 277.328318,159.827518 276.337445,157.00546 L276.337445,157.00546 C275.860288,155.646507 276.003454,154.148232 276.729461,152.902882 C277.455468,151.657532 278.692026,150.789111 280.115404,150.524971 L287.25441,149.200175 L317.829489,139.116501 L336.350533,126.061674 L343.14,136.81419 L321.739248,148.293337 L290.108322,154.913892 Z" id="Path" fill="#FFB8B8"></path>
                    <polygon id="Path" fill="#FFB8B8" points="326.554286 282.995595 319.92 282.056869 320.657296 271.418502 327.66 271.418502"></polygon>
                    <polygon id="Path" fill="#FFB8B8" points="383.13 272.235419 377.322845 273.991189 372.81 263.8943 378.463833 261.127753"></polygon>
                    <path d="M379.26,263.408595 L372.162778,266.294761 L338.289665,222.04021 L327.64383,273.991189 L320.546608,272.708449 C315.993843,227.919833 312.281393,182.235798 316.836696,160.629003 L343.128682,159.506608 L355.06492,197.347468 L360.871739,223.002268 L379.26,263.408595 Z" id="Path" fill="#2F2E41"></path>
                    <path d="M324.900351,291.89175 L324.900351,291.89175 C323.832853,292.109493 322.720194,291.996931 321.724621,291.570478 L318.256388,290.084869 C315.348265,289.942735 313.368106,290.49411 311.748919,288.482818 C310.818701,287.311973 310.62903,285.752913 311.253514,284.410691 L311.253514,284.410691 C311.872429,283.064095 313.206456,282.140126 314.74292,281.993872 L319.506589,279.136564 L319.756627,281.278621 C321.933829,282.452717 324.518716,281.945533 327.257739,280.802609 L328.752867,285.783768 C329.142555,287.082038 328.949312,288.475995 328.219168,289.633604 C327.489024,290.791213 326.287339,291.608847 324.900351,291.89175 Z" id="Path" fill="#2F2E41"></path>
                    <path d="M384.504526,281.473157 L384.504526,281.473157 C383.563758,282.015 382.466698,282.255094 381.373318,282.158427 L377.564369,281.821681 C374.749198,282.594617 373.054716,283.740733 370.824338,282.323429 C369.537722,281.494493 368.822365,280.062878 368.95589,278.584177 L368.95589,278.584177 C369.082613,277.103034 370.034607,275.802549 371.446016,275.182508 L374.997149,270.96138 L375.969965,272.931632 C378.443916,273.373966 380.728822,272.081132 382.942212,270.132159 L386.073573,274.428257 C386.889716,275.547972 387.18417,276.941367 386.886798,278.276543 C386.589426,279.611718 385.726848,280.769155 384.504526,281.473157 Z" id="Path" fill="#2F2E41"></path>
                    <ellipse id="Oval" fill="#FFB8B8" cx="332.82" cy="102.907489" rx="11.61" ry="11.5770925"></ellipse>
                    <polygon id="Path" fill="#FFB8B8" points="348.3 126.061674 333.428215 122.845758 331.53 110.303965 341.971564 108.052863"></polygon>
                    <path d="M344.33603,160.792952 L317.34,160.792952 L323.424981,145.403709 C322.982808,140.108453 325.210743,136.213755 328.399488,132.822982 L332.444923,122.59192 C338.981376,118.258429 343.909195,118.582164 349.156761,124.210608 C355.378449,133.084224 351.071855,146.423398 344.33603,160.792952 Z" id="Path" fill="#EA7600"></path>
                    <path d="M331.054071,192.777944 L330.255229,201.251232 C329.970105,204.275552 328.323071,206.363877 325.252942,205.687205 L325.252942,205.687205 C323.774534,205.361356 322.517192,204.429638 321.810087,203.135972 C321.102982,201.842305 321.016522,200.315507 321.573342,198.955289 L324.366112,192.133043 L332.391663,160.532812 L331.054071,137.638767 L344.43,137.638767 L342.758008,162.145069 L331.054071,192.777944 Z" id="Path" fill="#FFB8B8"></path>
                    <path d="M344.43,138.92511 L330.24,138.92511 L331.234781,128.884098 C331.37022,125.284755 334.013388,122.391238 337.330203,122.211343 L337.330203,122.211343 C339.043113,122.11844 340.719106,122.772664 341.984666,124.028211 C343.250225,125.283759 344.000176,127.036287 344.06738,128.895221 L344.43,138.92511 Z" id="Path" fill="#EA7600"></path>
                    <ellipse id="Oval" fill="#2F2E41" cx="348.3" cy="86.185022" rx="3.87" ry="3.85903084"></ellipse>
                    <path d="M343.718656,84.6840886 C343.874953,82.6507437 345.881248,81.0703278 348.3,81.0752325 C348.205354,81.0651172 348.111557,81.0528252 348.01505,81.0475932 C345.489825,80.9120819 343.311956,82.5260522 343.149607,84.6532644 C342.987259,86.7804766 344.901855,88.6161015 347.426889,88.7541203 C347.523396,88.7593487 347.618291,88.757268 347.713697,88.7574494 C345.314116,88.5013849 343.564581,86.7175516 343.718656,84.6840886 Z" id="Path" fill="#2F2E41"></path>
                    <path d="M343.011222,86.0918533 C339.219137,82.8667996 328.342378,86.9657035 327.640507,89.1339463 C322.512517,89.8503978 318.63,92.9176352 318.63,98.3714554 L318.63,98.3714875 C321.678752,99.6519106 325.146116,99.4941184 328.894322,98.3714875 C334.869276,103.363403 335.278872,109.638789 331.645178,116.846566 L336.115603,116.938217 L341.656858,108.635419 L341.921846,117.057269 L352.169118,116.846558 L352.169118,104.777514 C352.202249,100.764679 351.301336,96.8016113 349.541156,93.2172465 C347.944298,90.0367434 345.466153,88.1796561 343.011222,86.0918533 Z" id="Path" fill="#2F2E41"></path>
                    <ellipse id="Oval" fill="#FFB8B8" cx="333.465" cy="104.837004" rx="1.935" ry="3.21585903"></ellipse>
                    <path d="M72.24,108.635325 C72.24,108.635325 73.5253521,87.1748998 80.1982666,92.0512624 C86.8711811,96.9276251 77.2841164,110.625551 77.2841164,110.625551 L72.24,108.635325 Z" id="Path" fill="#FFB9B9"></path>
                    <path d="M48.4656463,172.370044 C48.4656463,172.370044 62.0496271,189.167897 54.4496208,190.322528 C46.8496144,191.477158 43.86,174.497746 43.86,174.497746 L48.4656463,172.370044 Z" id="Path" fill="#FFB9B9"></path>
                    <path d="M28.9164536,96.5603924 L28.9164536,96.5603924 C32.591637,97.5219898 35.3273491,100.582679 35.8560844,104.324387 L40.4114936,136.561706 L46.7976357,162.276839 C46.7976357,162.276839 49.9906869,165.134073 48.7134664,166.721429 C47.436246,168.308785 50.31,174.975668 50.31,174.975668 L42.3273243,177.515419 C42.3273243,177.515419 41.369401,170.848531 39.7728833,170.531062 C38.3698046,170.252061 22.6633029,128.535495 18.8773973,118.429498 C18.3553821,117.036038 18.06,116.243563 18.06,116.243563 C18.06,116.243563 18.6986261,94.9730407 28.9164536,96.5603924 Z" id="Path" fill="#575A89"></path>
                    <path d="M30.7909047,266.273128 L35.834541,275.131746 C39.7403313,283.396567 36.2694792,284.89787 26.6929485,280.801065 L24.51,270.340964 L30.7909047,266.273128 Z" id="Path" fill="#FFB9B9"></path>
                    <path d="M33.0039518,277.331174 C33.0039518,277.331174 35.3727997,273.408688 36.2295869,274.0653 C37.0863741,274.721913 40.6203059,277.566825 40.6203059,277.566825 L45.2234179,282.050837 C45.2234179,282.050837 60.7752981,283.723091 50.8932795,289.264987 C41.011261,294.806884 35.5501444,290.211838 35.5501444,290.211838 C35.5501444,290.211838 21.7094121,290.943888 21.9326722,287.016499 C22.1559324,283.089109 26.6196681,276.875767 26.6196681,276.875767 C26.6196681,276.875767 32.2454868,280.711801 33.0039518,277.331174 Z" id="Path" fill="#2F2E41"></path>
                    <path d="M9.03,167.978556 L13.5689052,223.475849 C13.5689052,223.475849 13.7201999,256.651918 18.5616828,263.073093 C23.4031657,269.494268 23.5544447,272.704846 23.5544447,272.704846 L33.54,267.506751 C33.54,267.506751 28.3959276,258.845174 29.4550026,257.519207 C30.1078359,256.678297 30.5724037,255.704305 30.8166671,254.664404 L28.0933342,220.418139 L33.2374105,160.792952 L9.03,167.978556 Z" id="Path" fill="#2F2E41"></path>
                    <polygon id="Path" fill="#FFB9B9" points="21.93 266.241922 17.5877313 277.85022 7.74 273.685684 12.935358 264.986784"></polygon>
                    <path d="M13.7113377,273.202622 C13.7113377,273.202622 17.3785584,270.931581 17.8369625,271.840001 C18.2953666,272.74842 20.128975,276.609186 20.128975,276.609186 L22.1917834,282.286778 C22.1917834,282.286778 34.797846,290.235412 24.0253918,290.689614 C13.2529376,291.143816 10.5025291,285.012041 10.5025291,285.012041 C10.5025291,285.012041 -1.64512141,279.788615 0.18849894,276.609166 C2.02211929,273.429717 8.43973661,270.132159 8.43973661,270.132159 C8.43973661,270.132159 11.6485373,275.700746 13.7113377,273.202622 Z" id="Path" fill="#2F2E41"></path>
                    <path d="M47.8637756,167.475108 L50.31,218.803631 C50.31,218.803631 27.988222,265.214455 25.5419976,266.44388 C24.0693647,267.208199 22.9665908,268.53836 22.4842201,270.132159 L9.03,266.751237 L15.1455708,256.915829 L28.599791,224.028692 C28.599791,224.028692 30.7402209,223.106621 31.3517899,220.033056 C31.9633589,216.959492 33.1864572,216.959492 30.1286797,216.344781 C27.0709022,215.730071 27.0709022,212.656503 27.0709022,212.656503 L16.9802223,165.938326 L47.8637756,167.475108 Z" id="Path" fill="#2F2E41"></path>
                    <ellipse id="Oval" fill="#FFB9B9" transform="translate(37.089929, 74.573107) rotate(-80.782520) translate(-37.089929, -74.573107) " cx="37.0899285" cy="74.5731072" rx="12.3030757" ry="12.3330066"></ellipse>
                    <path d="M26.7139135,75.8942731 C26.7139135,75.8942731 25.8015074,91.1809645 24.5849765,92.6796597 C23.3684455,94.1783549 37.3586855,93.8786151 37.3586855,93.8786151 C37.3586855,93.8786151 36.4462794,80.9898382 37.3586855,79.7908829 C38.2710916,78.5919275 26.7139135,75.8942731 26.7139135,75.8942731 Z" id="Path" fill="#FFB9B9"></path>
                    <path d="M49.02,171.0837 C49.02,171.0837 14.2078556,167.994886 7.74,171.0837 C7.74,171.0837 10.1210018,162.225895 9.50577652,161.300452 C9.05833994,160.623397 10.2927855,135.392071 9.90527348,120.837386 C9.68555015,112.624586 7.79592957,104.604085 13.2890127,98.5065814 C15.1586584,96.4353532 17.2440325,94.6966432 19.4452607,93.8473195 C19.4452607,93.8473195 18.8300354,87.9781718 21.9101569,87.669691 C21.9101569,87.669691 33.6194125,86.4317616 37.9299846,90.1415436 C39.3082491,91.3193794 40.1751575,94.9089742 40.2670418,98.0017947 C38.1337281,108.522192 38.8887773,120.196387 40.8463124,132.307263 C40.9661614,133.076462 41.0979954,133.849667 41.2298294,134.622872 C43.3071976,146.633592 46.4472396,159.016893 49.02,171.0837 Z" id="Path" fill="#575A89"></path>
                    <path d="M31.1766455,79.4116208 C32.2066924,79.3483263 33.2124594,79.7068029 34.2353593,79.8466519 C37.8950038,80.3469902 41.7021634,77.6122725 42.5102052,73.902723 C42.5749742,73.4087318 42.7179478,72.9290166 42.9334379,72.4826621 C43.4966715,71.535696 44.7794,71.3551403 45.8368302,71.5728936 C46.8942605,71.790647 47.896608,72.3002929 48.9734969,72.3584843 C50.6362448,72.448323 52.2325341,71.394188 53.1186591,69.9425652 C53.9560652,68.4450015 54.3121738,66.7131012 54.1360586,64.9945393 L53.3389544,65.8560542 C53.0150562,65.150411 52.890005,64.3653103 52.9780303,63.5900886 C52.1190679,63.3545127 51.202951,63.595911 50.559433,64.2273929 C49.8565854,64.3044231 50.3870419,62.8848786 49.8648774,62.3942951 C49.6109157,62.2336161 49.3082327,62.1753026 49.0150399,62.2305694 C47.5197949,62.2454151 46.3102178,61.0676797 45.1319412,60.1195953 C43.0904046,58.4805559 40.7030334,57.359143 38.1627888,56.8459958 C36.4743751,56.5068744 34.6789549,56.4523872 33.077718,57.0998246 C31.7851264,57.697361 30.6185388,58.5495372 29.6436836,59.6083392 C27.1368,62.0906879 24.9169269,65.0073519 23.8740156,68.4239395 C23.0261638,71.2224033 23.0021453,74.2167674 23.8049904,77.0292723 C24.2252301,78.4898814 25.491722,83.4920976 27.34583,83.6085659 C29.6755684,83.7549452 28.2768148,79.5897857 31.1766455,79.4116208 Z" id="Path" fill="#2F2E41"></path>
                    <path d="M35.724008,96.4757709 L40.1450294,96.9531518 C40.1450294,96.9531518 44.4848644,105.439744 44.1696998,107.209914 C43.8545352,108.980085 43.1681908,107.905379 45.1214944,110.737498 C47.074798,113.569617 52.6174918,120.890082 53.3038602,121.964752 C53.9902286,123.039423 72.7018146,108.649452 71.5385128,104.337956 C71.5385128,104.337956 77.4481859,108.611226 79.98,109.180023 C79.98,109.180023 60.6962083,134.67142 58.0089502,137.933718 C55.3216921,141.196016 53.1589256,140.526028 49.4659099,138.591758 C45.7728943,136.657489 27.09,117.364079 27.09,117.364079 L35.724008,96.4757709 Z" id="Path" fill="#575A89"></path>
                    <path d="M41.28,135.066079 L25.8,119.618509 L29.7173549,118.343612 L40.8931008,132.741504 C41.0140189,133.513705 41.1470235,134.289904 41.28,135.066079 Z" id="Path" fill="#000000" opacity="0.1"></path>
                </g>
                <g id="Group"></g>
            </g>
        </g>
    </g>
</svg>