<svg xmlns="http://www.w3.org/2000/svg" viewBox="0 0 24 24"><defs><style>.a{fill:none;stroke:currentColor;stroke-linecap:round;stroke-linejoin:round;stroke-width:1.5px;}</style></defs><title>official-building-3</title><rect class="a" x="4.5" y="8.161" width="3" height="9"/><rect class="a" x="10.5" y="8.161" width="3" height="9"/><rect class="a" x="16.5" y="8.161" width="3" height="9"/><path class="a" d="M21,20.161H3v-2.25a.75.75,0,0,1,.75-.75h16.5a.75.75,0,0,1,.75.75Z"/><line class="a" x1="1.5" y1="23.161" x2="22.5" y2="23.161"/><line class="a" x1="1.5" y1="20.161" x2="22.5" y2="20.161"/><path class="a" d="M21,5.161v2.25a.75.75,0,0,1-.75.75H3.75A.75.75,0,0,1,3,7.411V5.161L11.665.829a.752.752,0,0,1,.67,0Z"/><line class="a" x1="3" y1="5.161" x2="21" y2="5.161"/></svg>