<svg xmlns="http://www.w3.org/2000/svg" viewBox="0 0 24 24"><defs><style>.a{fill:none;stroke:currentColor;stroke-linecap:round;stroke-linejoin:round;stroke-width:1.5px;}</style></defs><title>presentation-statistics</title><circle class="a" cx="5.25" cy="3.75" r="3"/><path class="a" d="M9.75,14.25v-1.5a4.5,4.5,0,0,0-9,0v3h1.5L3,23.25H7.5l.675-6.75"/><path class="a" d="M12.75,12.75h9a1.5,1.5,0,0,0,1.5-1.5v-9a1.5,1.5,0,0,0-1.5-1.5H11.25"/><line class="a" x1="20.25" y1="9.75" x2="12.75" y2="9.75"/><circle class="a" cx="13.251" cy="18.375" r="2.625"/><path class="a" d="M16.5,23.25a4.269,4.269,0,0,0-6.5,0"/><circle class="a" cx="20.001" cy="18.375" r="2.625"/><path class="a" d="M23.25,23.25a4.269,4.269,0,0,0-6.5,0"/><line class="a" x1="18.75" y1="9.75" x2="18.75" y2="3.75"/><line class="a" x1="15.75" y1="9.75" x2="15.75" y2="6"/></svg>