<?xml version="1.0" encoding="UTF-8"?><svg id="OBJECTS" xmlns="http://www.w3.org/2000/svg" viewBox="0 0 296.11 370.03"><path d="M229.45,117.57c-.71,0-1.42-.09-2.13-.29L54.91,69.7c-4.26-1.18-6.76-5.58-5.58-9.84,1.18-4.26,5.58-6.76,9.84-5.58l172.41,47.58c4.26,1.18,6.76,5.58,5.58,9.84-.98,3.55-4.2,5.87-7.71,5.87Z"/><path d="M57.03,117.57c-3.51,0-6.73-2.33-7.71-5.87-1.17-4.26,1.32-8.66,5.58-9.84L227.32,54.28c4.26-1.17,8.66,1.32,9.84,5.58,1.17,4.26-1.32,8.66-5.58,9.84L59.16,117.28c-.71,.2-1.43,.29-2.13,.29Z"/><path d="M76.94,209.29c-.21,0-.42,0-.63-.02-4.41-.35-7.7-4.2-7.35-8.6l7.19-91.72c.35-4.4,4.21-7.69,8.6-7.35,4.41,.35,7.7,4.2,7.35,8.6l-7.19,91.72c-.33,4.19-3.83,7.38-7.97,7.38Z"/><path d="M207.42,176.55l-11.57-65.59c-.77-4.35,2.14-8.5,6.49-9.27,4.35-.77,8.5,2.14,9.27,6.49l11.57,65.59-15.76,2.78Z"/><path d="M65.39,225.47c19.6-25.36,53.49-38.2,84.89-36.29,18.1,1.1,36.36,3.91,54.4,.67,5.29-.95,10.3-2.61,15.22-4.76,3.86-1.7,8.03-4.5,12.4-3.02,7.56,2.57,6.49,11.51,.97,15.51-8.33,6.03-20.77,7.53-30.67,8.3-12.68,1-25.42,.51-38.11,1.28-4.42,.27-7.41,3.34-7.74,7.74-.54,7.21-.42,14.62,.41,21.8,.35,3.09,2.13,6.91,5.68,7.46,19.18,2.99,37.15,19.11,48.01,35.19,3.55,5.25,20.28,31.81,3.23,30.42-6.59-.54-11.18-7.05-14.39-12.15-4.45-7.07-8.32-14.23-14.1-20.36-9.26-9.82-21.25-18.83-35.53-16.02-13.15,2.59-24.85,15.58-30.12,27.43-3.94,8.86-3.63,22.96-16.17,24.08-15.53,1.39-4.03-26.9-1-33.21,4.67-9.75,12.19-17.83,20.86-25.44,5.19-4.55,12.62-6.36,14.52-13.8,2.04-7.96,.7-16.89-.27-24.88-.6-5.01-4.45-8.78-9.8-7.46-9.8,2.41-19.9,6.11-27.99,12.26-4.04,3.07-7.92,6.31-11.76,9.63-4.88,4.22-11.5,12.29-19.04,10.44-6.17-1.52-5.4-12.34-2.7-16.38,5.56-8.3-7.84-16.06-13.36-7.81-5.81,8.68-5.1,21.86,.25,30.66,7.07,11.62,23.36,10.98,33.63,4.26,6.99-4.57,12.96-11.06,19.43-16.37,2.06-1.69-.82,.58,1.36-1.06,1.17-.88,2.33-1.78,3.57-2.56,6.27-3.97,13.58-6.38,20.73-8.14l-9.8-7.46c.6,4.96,1.45,10.02,1.23,15.03-.07,1.46-.29,2.89-.35,4.35-.04,.86-.43,1.7,.03,1.14,.23-.28-2.71,1.18-3.19,1.48-1.57,.99-3.04,2.13-4.49,3.28-2.9,2.29-5.6,4.8-8.18,7.43-8.17,8.32-15.16,16.67-19.8,27.49-6.19,14.43-13.72,38.05,2.51,48.74,13.26,8.74,31.93,1.17,38.46-12.56,2.85-5.99,3.13-12.72,6.29-18.69,2.9-5.48,7.81-11.15,13.05-14.48,13.01-8.26,26.72,7.78,32.97,17.79,8.89,14.23,19.3,32.22,39.16,28.28,8.12-1.61,14.32-7.89,16.34-15.86,2.41-9.47-1.36-17.97-5.64-26.25-7.83-15.16-19.1-28.36-32.71-38.61-8.98-6.75-19.85-13.01-31.12-14.76l5.68,7.46c-.82-7.18-.95-14.59-.41-21.8l-7.74,7.74c24.29-1.48,50.49,1.56,73.03-9.65,9.82-4.89,16.81-14.4,15.6-25.71-1.21-11.32-10.27-19.95-21.54-21.02-5.85-.55-11.11,1.58-16.32,3.99-5.47,2.52-11.13,4.27-17.13,5.05-11.47,1.49-23.29,.29-34.77-.6-19.84-1.54-38.8-1.63-57.88,5.13-19.22,6.81-38.41,18.37-51.03,34.7-2.57,3.33-3.19,7.69,0,10.94,2.64,2.7,8.39,3.3,10.94,0Z"/><path d="M141.93,189.22c-22.48,0-40.78-18.29-40.78-40.77s18.29-40.77,40.78-40.77,40.77,18.29,40.77,40.77-18.29,40.77-40.77,40.77Zm0-65.55c-13.66,0-24.78,11.11-24.78,24.77s11.11,24.77,24.78,24.77,24.77-11.11,24.77-24.77-11.11-24.77-24.77-24.77Z"/></svg>