<?xml version="1.0" encoding="UTF-8"?>
<svg width="18px" height="18px" viewBox="0 0 18 18" version="1.1" xmlns="http://www.w3.org/2000/svg" xmlns:xlink="http://www.w3.org/1999/xlink">
    <title>safety-exit-door-left</title>
    <g id="Page-1" stroke="none" stroke-width="1" fill="none" fill-rule="evenodd" stroke-linecap="round" stroke-linejoin="round">
        <g id="COAdmin---home---members" transform="translate(-1063.000000, -224.000000)" stroke="#494949" stroke-width="1.2">
            <g id="safety-exit-door-left" transform="translate(1072.000000, 233.000000) scale(-1, 1) translate(-1072.000000, -233.000000) translate(1064.000000, 225.000000)">
                <polyline id="Path" points="13.5 1 12 2.5 13.5 4"></polyline>
                <line x1="12" y1="2.5" x2="15.5" y2="2.5" id="Path"></line>
                <path d="M15.5,12.1586667 C15.5,11.6063819 15.0522847,11.1586667 14.5,11.1586667 L13.4073333,11.1586667 C13.1191976,11.1585413 12.8451187,11.0341367 12.6553333,10.8173333 L10.1633333,7.96866667 L10.5593333,7.686 C10.7288705,7.56468968 10.9321986,7.49963401 11.1406667,7.49999259 L13.5,7.49999259 C14.0522847,7.49999259 14.5,7.05228475 14.5,6.49999259 C14.5,5.94771525 14.0522847,5.49999259 13.5,5.49999259 L11.1406667,5.49999259 C10.5153189,5.49860521 9.90539313,5.69406134 9.39733333,6.05866667 L6.94066667,7.81466667 C6.77106996,7.93578072 6.56773509,8.00060537 6.35933333,7.99999259 L5,7.99999259 C4.44771525,7.99999259 4,8.44771525 4,8.99999259 C4,9.55228475 4.44771525,9.99999259 5,9.99999259 L6.35933333,9.99999259 C6.98468112,10.0013948 7.59460687,9.80593866 8.10266667,9.44133333 L8.528,9.13733333 L9.66666667,10.442 L8.62333333,11.2773333 C7.90985768,11.8449351 7.49508936,12.7076238 7.49733333,13.6193333 L7.49733333,14.4999926 C7.49733333,15.0522847 7.94504858,15.4999926 8.49733333,15.4999926 C9.04961808,15.4999926 9.49733333,15.0522847 9.49733333,14.4999926 L9.49733333,13.6193333 C9.49648911,13.3154459 9.63507222,13.0279597 9.87333333,12.8393333 L10.9853333,11.9493333 L11.148,12.1346667 C11.7175094,12.7852518 12.5400269,13.1584828 13.4046667,13.1586667 L14.5,13.1586667 C15.0522847,13.1586667 15.5,12.7109514 15.5,12.1586667 Z" id="Path"></path>
                <circle id="Oval" cx="6.5" cy="4" r="1.75"></circle>
                <path d="M9.5,1.5 C9.5,0.94771525 9.05228475,0.5 8.5,0.5 L1.5,0.5 C0.94771525,0.5 0.5,0.94771525 0.5,1.5 L0.5,14.5 C0.5,15.0522847 0.94771525,15.5 1.5,15.5 L4.5,15.5" id="Path"></path>
            </g>
        </g>
    </g>
</svg>