<svg width="200" height="140" viewBox="0 0 200 140" fill="none" xmlns="http://www.w3.org/2000/svg">
<g clip-path="url(#clip0_1584_8421)">
<path d="M39.8487 139.437C61.8565 139.437 79.6974 138.079 79.6974 136.404C79.6974 134.729 61.8565 133.371 39.8487 133.371C17.8409 133.371 0 134.729 0 136.404C0 138.079 17.8409 139.437 39.8487 139.437Z" fill="#E6E6E6"/>
<path d="M30.4609 30.9383C37.3958 27.9826 46.0333 29.8553 54.4687 31.155C54.5472 29.581 55.4987 27.6654 54.502 26.5673C53.2911 25.2332 53.4026 23.8315 54.1313 22.4217C55.9945 18.8165 53.325 14.9805 50.6296 11.7909C50.022 11.0735 49.2542 10.5099 48.3885 10.1458C47.5228 9.78172 46.5836 9.62737 45.6471 9.6953L40.654 10.0527C39.439 10.1396 38.2795 10.5964 37.3306 11.3617C36.3817 12.1271 35.6887 13.1646 35.3444 14.3354C34.1521 15.9602 33.514 17.5805 33.9158 19.1924C32.13 20.4153 31.8299 21.8915 32.6324 23.5556C33.3128 24.6034 33.3056 25.6233 32.6014 26.615C31.6767 27.8793 30.9684 29.2891 30.5056 30.7865L30.4609 30.9383Z" fill="#2F2E41"/>
<path d="M195.26 120.541H53.9189C52.662 120.541 51.4566 120.04 50.5678 119.15C49.679 118.259 49.1797 117.051 49.1797 115.792C100.416 109.825 150.689 109.825 199.999 115.792C199.999 117.051 199.5 118.259 198.611 119.15C197.722 120.04 196.517 120.541 195.26 120.541Z" fill="#2F2E41"/>
<path d="M199.999 116.071L49.1797 115.792L66.6592 86.3199L66.7428 86.1802V21.2279C66.7427 20.4395 66.8976 19.6588 67.1987 18.9305C67.4997 18.2021 67.941 17.5403 68.4974 16.9828C69.0537 16.4253 69.7141 15.9831 70.441 15.6814C71.1679 15.3798 71.947 15.2245 72.7338 15.2246H175.609C176.396 15.2245 177.175 15.3798 177.902 15.6814C178.629 15.9831 179.289 16.4253 179.845 16.9828C180.402 17.5403 180.843 18.2021 181.144 18.9305C181.445 19.6588 181.6 20.4395 181.6 21.2279V86.6272L199.999 116.071Z" fill="#3F3D56"/>
<path d="M72.596 19.4141C72.0786 19.4146 71.5826 19.6209 71.2167 19.9874C70.8509 20.354 70.6451 20.8511 70.6445 21.3695V80.5923C70.6451 81.1108 70.8509 81.6078 71.2168 81.9744C71.5826 82.341 72.0786 82.5472 72.596 82.5478H176.581C177.098 82.5472 177.594 82.3409 177.96 81.9744C178.326 81.6078 178.532 81.1108 178.532 80.5923V21.3695C178.532 20.8511 178.326 20.3541 177.96 19.9875C177.594 19.6209 177.098 19.4147 176.581 19.4141H72.596Z" fill="white"/>
<path d="M73.0349 90.3711C72.875 90.3714 72.7185 90.4174 72.5839 90.5039C72.4493 90.5903 72.3421 90.7135 72.275 90.8589L66.8891 102.592C66.8304 102.719 66.8048 102.86 66.8145 103C66.8242 103.14 66.869 103.276 66.9446 103.394C67.0203 103.512 67.1244 103.61 67.2475 103.677C67.3705 103.745 67.5085 103.78 67.6488 103.78H180.913C181.055 103.78 181.196 103.744 181.32 103.674C181.445 103.604 181.549 103.504 181.624 103.383C181.699 103.261 181.742 103.122 181.748 102.98C181.755 102.837 181.724 102.695 181.661 102.567L175.806 90.8343C175.737 90.6948 175.631 90.5775 175.498 90.4957C175.366 90.4138 175.214 90.3706 175.058 90.3711H73.0349Z" fill="#2F2E41"/>
<path d="M124.172 18.438C124.865 18.438 125.427 17.8752 125.427 17.1809C125.427 16.4866 124.865 15.9238 124.172 15.9238C123.48 15.9238 122.918 16.4866 122.918 17.1809C122.918 17.8752 123.48 18.438 124.172 18.438Z" fill="white"/>
<path d="M113.039 106.014C112.855 106.014 112.676 106.075 112.53 106.187C112.385 106.299 112.279 106.456 112.231 106.634L110.88 111.662C110.847 111.786 110.843 111.917 110.867 112.043C110.892 112.169 110.946 112.288 111.024 112.39C111.102 112.492 111.203 112.575 111.318 112.632C111.433 112.689 111.559 112.718 111.688 112.718H137.381C137.515 112.718 137.646 112.686 137.764 112.625C137.883 112.564 137.985 112.475 138.062 112.366C138.14 112.257 138.19 112.132 138.209 111.999C138.228 111.867 138.215 111.732 138.171 111.606L136.434 106.578C136.377 106.413 136.271 106.27 136.129 106.169C135.987 106.068 135.818 106.014 135.644 106.014H113.039Z" fill="#2F2E41"/>
<path d="M181.601 85.2031V86.3204H66.6602L66.7467 86.1809V85.2031H181.601Z" fill="#2F2E41"/>
<path d="M178.393 39.1094C189.171 39.1094 197.908 30.3545 197.908 19.5547C197.908 8.75493 189.171 0 178.393 0C167.616 0 158.879 8.75493 158.879 19.5547C158.879 30.3545 167.616 39.1094 178.393 39.1094Z" fill="#E67300"/>
<path d="M186.48 28.0747H170.31C170.015 28.0744 169.731 27.9566 169.522 27.7471C169.313 27.5376 169.196 27.2535 169.195 26.9573V17.1799C169.196 16.8836 169.313 16.5996 169.522 16.3901C169.731 16.1806 170.015 16.0628 170.31 16.0625H186.48C186.775 16.0628 187.059 16.1806 187.268 16.3901C187.477 16.5996 187.594 16.8836 187.595 17.1799V26.9573C187.594 27.2535 187.477 27.5376 187.268 27.7471C187.059 27.9566 186.775 28.0744 186.48 28.0747ZM170.31 17.1799V26.9573H186.48L186.48 17.1799L170.31 17.1799Z" fill="white"/>
<path d="M183.411 17.1797H173.375V12.7101C173.375 9.47273 175.485 7.12305 178.393 7.12305C181.301 7.12305 183.411 9.47273 183.411 12.7101L183.411 17.1797ZM174.49 16.0623H182.296V12.7101C182.296 10.0785 180.691 8.24046 178.393 8.24046C176.095 8.24046 174.49 10.0785 174.49 12.7101L174.49 16.0623Z" fill="white"/>
<path d="M178.396 22.9067C179.012 22.9067 179.511 22.4064 179.511 21.7893C179.511 21.1722 179.012 20.6719 178.396 20.6719C177.781 20.6719 177.281 21.1722 177.281 21.7893C177.281 22.4064 177.781 22.9067 178.396 22.9067Z" fill="white"/>
<path d="M164.773 62.4602H84.4101C84.0155 62.4597 83.6373 62.3024 83.3583 62.0229C83.0793 61.7433 82.9223 61.3643 82.9219 60.9689V40.9932C82.9223 40.5979 83.0793 40.2188 83.3583 39.9392C83.6373 39.6597 84.0155 39.5024 84.4101 39.502H164.773C165.168 39.5024 165.546 39.6597 165.825 39.9392C166.104 40.2188 166.261 40.5979 166.261 40.9932V60.9689C166.261 61.3643 166.104 61.7433 165.825 62.0229C165.546 62.3024 165.168 62.4597 164.773 62.4602ZM84.4101 40.0985C84.1733 40.0987 83.9464 40.1931 83.779 40.3608C83.6116 40.5286 83.5174 40.756 83.5172 40.9932V60.9689C83.5174 61.2061 83.6116 61.4336 83.779 61.6013C83.9464 61.769 84.1733 61.8634 84.4101 61.8636H164.773C165.01 61.8634 165.237 61.769 165.404 61.6013C165.572 61.4336 165.666 61.2061 165.666 60.9689V40.9932C165.666 40.756 165.572 40.5286 165.404 40.3608C165.237 40.1931 165.01 40.0987 164.773 40.0985L84.4101 40.0985Z" fill="#E6E6E6"/>
<path d="M96.8942 56.2899C100.242 56.2899 102.956 53.5702 102.956 50.2152C102.956 46.8603 100.242 44.1406 96.8942 44.1406C93.5462 44.1406 90.832 46.8603 90.832 50.2152C90.832 53.5702 93.5462 56.2899 96.8942 56.2899Z" fill="#E6E6E6"/>
<path d="M110.895 46.166C110.762 46.1658 110.63 46.1918 110.508 46.2426C110.385 46.2934 110.273 46.368 110.179 46.462C110.085 46.556 110.011 46.6677 109.96 46.7906C109.909 46.9136 109.883 47.0454 109.883 47.1785C109.883 47.3115 109.909 47.4433 109.96 47.5663C110.011 47.6892 110.085 47.8009 110.179 47.8949C110.273 47.989 110.385 48.0635 110.508 48.1143C110.63 48.1651 110.762 48.1911 110.895 48.1909H158.526C158.794 48.1909 159.051 48.0842 159.24 47.8943C159.43 47.7045 159.536 47.447 159.536 47.1785C159.536 46.9099 159.43 46.6524 159.24 46.4625C159.051 46.2727 158.794 46.166 158.526 46.166H110.895Z" fill="#E6E6E6"/>
<path d="M110.897 52.2402C110.629 52.2402 110.372 52.3469 110.183 52.5368C109.993 52.7266 109.887 52.9842 109.887 53.2527C109.887 53.5212 109.993 53.7787 110.183 53.9686C110.372 54.1584 110.629 54.2651 110.897 54.2651H131.393C131.661 54.2651 131.918 54.1584 132.107 53.9686C132.297 53.7787 132.403 53.5212 132.403 53.2527C132.403 52.9842 132.297 52.7266 132.107 52.5368C131.918 52.3469 131.661 52.2402 131.393 52.2402H110.897Z" fill="#E6E6E6"/>
<path d="M66.4618 52.6498L51.606 60.564L51.418 53.9688C56.2668 53.1577 60.8799 51.7455 65.1454 49.4464L66.6992 45.5999C66.8685 45.1807 67.1436 44.8129 67.4976 44.5326C67.8516 44.2522 68.2723 44.0688 68.7184 44.0006C69.1645 43.9323 69.6206 43.9815 70.042 44.1432C70.4634 44.305 70.8355 44.5737 71.122 44.9231C71.541 45.4343 71.7505 46.086 71.708 46.7462C71.6654 47.4064 71.374 48.0257 70.8928 48.4787L66.4618 52.6498Z" fill="#FFB8B8"/>
<path d="M30.1653 98.343C30.0569 97.9447 30.0339 97.528 30.0978 97.1201C30.1617 96.7123 30.311 96.3226 30.5359 95.9767L33.7993 90.9582C34.5711 89.7712 35.7555 88.9138 37.1226 88.5524C38.4896 88.1909 39.942 88.3513 41.1977 89.0023C39.8262 91.3416 40.0174 93.3938 41.6714 95.1772C39.1038 96.4333 36.7307 98.0544 34.6257 99.9904C34.2414 100.253 33.8001 100.42 33.3385 100.477C32.8769 100.534 32.4084 100.479 31.972 100.318C31.5356 100.157 31.144 99.8936 30.8297 99.55C30.5155 99.2065 30.2877 98.7927 30.1653 98.343Z" fill="#2F2E41"/>
<path d="M67.1372 91.7815C66.6433 92.6062 65.9463 93.2899 65.1128 93.7669C64.2794 94.244 63.3376 94.4983 62.3778 94.5056L40.698 94.6702L39.7578 89.2056L49.3482 86.3791L41.2622 80.1607L50.1004 69.7969L66.1534 84.7896C67.0916 85.6659 67.7012 86.8384 67.8803 88.1111C68.0594 89.3837 67.797 90.6794 67.1372 91.7815Z" fill="#2F2E41"/>
<path d="M37.313 129.154H32.2357C27.677 97.8421 23.0367 66.4424 36.7488 54.7227L52.9209 57.3607L50.8524 71.1164L41.8261 81.4803L37.313 129.154Z" fill="#2F2E41"/>
<path d="M41.7767 136.246C41.3792 136.355 40.9633 136.378 40.5563 136.314C40.1493 136.25 39.7604 136.101 39.4152 135.875L33.9023 135.133C32.7177 134.359 31.862 133.173 31.5013 131.803C31.1405 130.433 31.3004 128.978 31.95 127.719C34.2846 129.093 36.3326 128.902 38.1123 127.244C39.3698 129.788 41.4417 129.633 43.4204 131.777C43.6824 132.162 43.8488 132.604 43.9057 133.067C43.9626 133.529 43.9084 133.999 43.7476 134.436C43.5868 134.873 43.324 135.266 42.9812 135.581C42.6383 135.896 42.2254 136.124 41.7767 136.246Z" fill="#2F2E41"/>
<path d="M49.3516 33.8067L39.9492 31.5454C41.5108 28.3424 41.6394 24.7784 40.8894 20.9931L47.2831 20.8047C47.4834 25.5118 48.0895 29.9094 49.3516 33.8067Z" fill="#FFB8B8"/>
<path d="M51.9348 63.0345C45.0902 67.7081 40.254 63.1944 36.5634 56.2302C37.0763 51.9688 36.2459 46.8691 34.708 41.3279C34.0241 38.8839 34.2794 36.2717 35.4236 34.0071C36.5679 31.7425 38.5178 29.99 40.8885 29.0957L48.9746 32.4875C55.8405 38.0956 57.192 44.1703 54.616 50.5772L51.9348 63.0345Z" fill="#E67300"/>
<path d="M32.2365 38.5168L24.7146 42.4739L38.066 50.3882L39.9237 54.9801C40.0477 55.2866 40.1081 55.6151 40.1013 55.9458C40.0944 56.2764 40.0204 56.6022 39.8838 56.9032C39.7472 57.2043 39.5508 57.4743 39.3066 57.6968C39.0625 57.9193 38.7757 58.0897 38.4637 58.1975C38.109 58.32 37.7308 58.3587 37.3588 58.3103C36.9867 58.262 36.6309 58.128 36.3192 57.9188C36.0074 57.7097 35.7482 57.431 35.5619 57.1047C35.3756 56.7785 35.2671 56.4134 35.2451 56.0381L35.0572 52.8378L18.0878 47.2264C17.516 47.0373 16.9947 46.7204 16.5633 46.2995C16.1319 45.8787 15.8018 45.365 15.5978 44.7973C15.3006 43.9699 15.2854 43.0671 15.5548 42.2301C15.8242 41.3931 16.3628 40.6693 17.0865 40.1718L30.7321 30.791L32.2365 38.5168Z" fill="#FFB8B8"/>
<path d="M39.76 39.2716C36.6229 37.894 33.7703 39.3905 30.1696 40.5907L29.6055 30.6037C33.1808 28.6941 36.5896 28.1793 39.76 29.6615L39.76 39.2716Z" fill="#E67300"/>
<path d="M43.5109 25.7515C46.8263 25.7515 49.5139 23.0583 49.5139 19.7361C49.5139 16.4139 46.8263 13.7207 43.5109 13.7207C40.1955 13.7207 37.5078 16.4139 37.5078 19.7361C37.5078 23.0583 40.1955 25.7515 43.5109 25.7515Z" fill="#FFB8B8"/>
<path d="M50.6951 18.9777C44.7515 19.561 40.2226 18.587 37.3281 15.8136V13.5801H50.1907L50.6951 18.9777Z" fill="#2F2E41"/>
</g>
<defs>
<clipPath id="clip0_1584_8421">
<rect width="200" height="139.437" fill="white"/>
</clipPath>
</defs>
</svg>
