<svg version="1.1" id="Layer_1" xmlns="http://www.w3.org/2000/svg" xmlns:xlink="http://www.w3.org/1999/xlink" x="0px" y="0px"
	 viewBox="0 0 24 24" style="enable-background:new 0 0 24 24;" xml:space="preserve">
<title>Short name</title>
<g>
	<path d="M11.76,24c-0.074,0.001-0.158,0.002-0.243,0.002c-1.761,0-3.514-0.253-5.208-0.752c-1.644-0.416-2.805-1.91-2.809-3.63
		V7.382c0.004-1.72,1.17-3.217,2.837-3.639C6.62,3.66,6.916,3.582,7.221,3.51L5.21,1.248C4.936,0.939,4.964,0.464,5.273,0.19
		C5.41,0.068,5.587,0,5.771,0c0.214,0,0.418,0.092,0.561,0.252l2.609,2.935c0.626-0.088,1.251-0.143,1.862-0.166
		c0.005,0,0.024,0,0.029,0c0.404,0,0.733,0.317,0.749,0.722c0.007,0.2-0.064,0.391-0.2,0.538c-0.136,0.147-0.322,0.232-0.522,0.239
		C9.461,4.571,8.073,4.797,6.732,5.19C5.709,5.45,5.002,6.35,5,7.384v12.234c0.002,1.032,0.703,1.931,1.705,2.185
		c1.582,0.465,3.191,0.699,4.798,0.699c0.086,0,0.172,0,0.257-0.002c0.103,0.001,0.194,0.002,0.285,0.002
		c1.602,0,3.204-0.233,4.764-0.692c1.023-0.26,1.73-1.161,1.732-2.194V7.382c0-0.747-0.369-1.442-0.989-1.86
		c-0.166-0.112-0.279-0.282-0.317-0.479c-0.038-0.197,0.003-0.397,0.115-0.563c0.139-0.207,0.372-0.33,0.622-0.33
		c0.15,0,0.295,0.044,0.419,0.128c1.033,0.697,1.65,1.857,1.65,3.104v12.236c-0.004,1.72-1.17,3.216-2.835,3.639
		c-1.675,0.493-3.42,0.745-5.175,0.745C12.031,24.002,11.85,24.001,11.76,24z"/>
	<path d="M11.771,8.25c-0.184,0-0.361-0.067-0.498-0.189c-0.15-0.133-0.239-0.317-0.25-0.516c-0.012-0.2,0.055-0.393,0.188-0.542
		l6-6.75C17.353,0.092,17.557,0,17.771,0c0.184,0,0.361,0.067,0.498,0.189c0.15,0.133,0.239,0.316,0.25,0.516
		c0.012,0.2-0.055,0.393-0.188,0.543l-6,6.75C12.189,8.158,11.985,8.25,11.771,8.25z"/>
	<path d="M12.521,19.5c-0.414,0-0.75-0.336-0.75-0.75v-7.5c0-0.414,0.336-0.75,0.75-0.75s0.75,0.336,0.75,0.75v7.5
		C13.271,19.164,12.935,19.5,12.521,19.5z"/>
	<path d="M9.521,19.5c-0.414,0-0.75-0.336-0.75-0.75v-3c0-0.414,0.336-0.75,0.75-0.75s0.75,0.336,0.75,0.75v3
		C10.271,19.164,9.935,19.5,9.521,19.5z"/>
	<path d="M9.521,13.5c-0.414,0-0.75-0.336-0.75-0.75v-1.5c0-0.414,0.336-0.75,0.75-0.75s0.75,0.336,0.75,0.75v1.5
		C10.271,13.164,9.935,13.5,9.521,13.5z"/>
</g>
</svg>
