<svg xmlns="http://www.w3.org/2000/svg" viewBox="0 0 24 24"><defs><style>.a{fill:none;stroke:currentColor;stroke-linecap:round;stroke-linejoin:round;stroke-width:1.5px;}</style></defs><title>ticket-group</title><path class="a" d="M19.5,3.75V1.5a.75.75,0,0,0-.75-.75H5.25a.75.75,0,0,0-.75.75V3.75a1.5,1.5,0,0,1,0,3V9a.75.75,0,0,0,.75.75h13.5A.75.75,0,0,0,19.5,9V6.75a1.5,1.5,0,0,1,0-3Z"/><line class="a" x1="9" y1="3.75" x2="9" y2="6.75"/><circle class="a" cx="19.5" cy="15.75" r="2.25"/><path class="a" d="M15.75,23.25a3.75,3.75,0,0,1,7.5,0"/><circle class="a" cx="12" cy="15.75" r="2.25"/><path class="a" d="M8.25,23.25a3.75,3.75,0,0,1,7.5,0"/><circle class="a" cx="4.5" cy="15.75" r="2.25"/><path class="a" d="M.75,23.25a3.75,3.75,0,0,1,7.5,0"/></svg>